<svg width="96" height="26" viewBox="0 0 96 26" fill="none" xmlns="http://www.w3.org/2000/svg">
<path d="M80.581 0C81.4994 0.0018034 82.3892 0.319596 83.101 0.9L94.178 9.9C94.6396 10.2751 95.0118 10.7483 95.2674 11.2854C95.523 11.8224 95.6557 12.4097 95.6557 13.0045C95.6557 13.5993 95.523 14.1866 95.2674 14.7236C95.0118 15.2607 94.6396 15.7339 94.178 16.109L83.101 25.1C82.3887 25.6808 81.4981 25.9987 80.579 26H4.00098C2.94011 26 1.92269 25.5786 1.17255 24.8284C0.422404 24.0783 0.000976563 23.0609 0.000976562 22V4C0.000976563 2.93913 0.422404 1.92172 1.17255 1.17157C1.92269 0.421427 2.94011 0 4.00098 0L80.581 0Z" fill="#FFD301"/>
<path d="M16.1428 15.648C16.1428 16.56 15.4948 17.1 14.4148 17.1H12.4828V14.148H14.3788C15.4468 14.148 16.1428 14.724 16.1428 15.648ZM15.9268 11.892C15.9268 12.744 15.3388 13.248 14.3188 13.248H12.4828V10.536H14.2948C15.3628 10.536 15.9268 11.064 15.9268 11.892ZM17.2348 15.756C17.2348 14.724 16.4908 13.848 15.5788 13.692C16.3828 13.428 17.0428 12.816 17.0428 11.76C17.0428 10.596 16.1548 9.636 14.3908 9.636H11.3908V18H14.5108C16.2388 18 17.2348 17.016 17.2348 15.756ZM23.2502 9.624H18.7502V18H23.2502V17.1H19.8422V14.22H22.8902V13.32H19.8422V10.524H23.2502V9.624ZM30.3385 15.72C30.3385 12.624 25.8265 13.968 25.8265 11.808C25.8265 10.908 26.5345 10.44 27.4345 10.464C28.4545 10.476 28.9825 11.112 29.0545 11.676H30.2545C30.1225 10.404 29.0785 9.528 27.4825 9.528C25.8265 9.528 24.7105 10.464 24.7105 11.844C24.7105 14.952 29.2345 13.512 29.2345 15.768C29.2345 16.56 28.6105 17.16 27.5545 17.16C26.3905 17.16 25.8985 16.464 25.8265 15.768H24.6625C24.6865 17.148 25.8745 18.084 27.5545 18.084C29.3665 18.084 30.3385 16.908 30.3385 15.72ZM31.4295 10.524H33.7215V18H34.8135V10.524H37.0935V9.636H31.4295V10.524ZM43.8737 15.72C43.8737 12.624 39.3617 13.968 39.3617 11.808C39.3617 10.908 40.0697 10.44 40.9697 10.464C41.9897 10.476 42.5177 11.112 42.5897 11.676H43.7897C43.6577 10.404 42.6137 9.528 41.0177 9.528C39.3617 9.528 38.2457 10.464 38.2457 11.844C38.2457 14.952 42.7697 13.512 42.7697 15.768C42.7697 16.56 42.1457 17.16 41.0897 17.16C39.9257 17.16 39.4337 16.464 39.3617 15.768H38.1977C38.2217 17.148 39.4097 18.084 41.0897 18.084C42.9017 18.084 43.8737 16.908 43.8737 15.72ZM49.9806 9.624H45.4806V18H49.9806V17.1H46.5726V14.22H49.6206V13.32H46.5726V10.524H49.9806V9.624ZM51.633 9.636V18H55.653V17.112H52.725V9.636H51.633ZM56.8127 9.636V18H60.8327V17.112H57.9047V9.636H56.8127ZM66.4924 9.624H61.9924V18H66.4924V17.1H63.0844V14.22H66.1324V13.32H63.0844V10.524H66.4924V9.624ZM72.6207 12.096C72.6207 13.032 72.0807 13.704 70.8447 13.704H69.2367V10.536H70.8447C72.0927 10.536 72.6207 11.148 72.6207 12.096ZM68.1447 9.636V18H69.2367V14.58H70.5567L72.5487 18H73.8567L71.7567 14.496C73.1607 14.184 73.7487 13.164 73.7487 12.096C73.7487 10.728 72.8127 9.636 70.8447 9.636H68.1447Z" fill="#1F1F39"/>
</svg>
