<svg width="175" height="225" viewBox="0 0 175 225" fill="none" xmlns="http://www.w3.org/2000/svg">
<path d="M98.9378 33.6959C97.0148 35.3799 97.4968 39.0959 100.013 41.9909C102.529 44.8859 106.126 45.8689 108.047 44.1839L132.805 30.3449L115.936 10.9219L98.9378 33.6959Z" fill="#F4F3FD"/>
<path d="M133.249 29.9719C129.832 32.9676 123.265 31.0661 118.582 25.7245C113.898 20.383 112.872 13.624 116.288 10.6283C119.705 7.63258 126.272 9.53408 130.955 14.8756C135.639 20.2172 136.666 26.9755 133.249 29.9719Z" fill="#DADAF7"/>
<path d="M103.159 28.041C103.835 30.8941 105.213 33.5331 107.168 35.718C109.053 37.9559 111.47 39.6853 114.196 40.748L116.554 39.429C113.573 38.4192 110.927 36.6068 108.909 34.191C106.796 31.8496 105.366 28.9721 104.778 25.873L103.159 28.041Z" fill="#DADAF7"/>
<path d="M118.576 25.7221C119.195 26.4348 119.863 27.1031 120.576 27.7221L127.125 23.0221L122.398 17.5801L116.876 23.4611C117.388 24.2542 117.956 25.0097 118.576 25.7221Z" fill="#EAE9FF"/>
<path d="M79.9027 66.9389C89.1137 68.0959 88.6527 78.7389 88.6527 78.7389C88.6527 78.7389 98.0938 80.3589 102.469 85.2169C106.844 90.0749 102.469 99.0989 102.469 99.0989C102.469 99.0989 109.607 97.9419 113.291 101.644C116.975 105.346 114.673 111.13 105.691 113.212C96.7087 115.294 25.7907 125.937 25.7907 125.937C25.7907 125.937 20.9547 126.633 21.4157 121.774C21.8767 116.915 29.9357 112.751 29.9357 112.751C29.9357 112.751 24.1787 109.743 25.3307 103.728C26.4827 97.7129 34.3107 91.9279 37.5307 89.6139C39.9744 87.9289 42.5119 86.3841 45.1307 84.9869C45.1307 84.9869 44.6977 73.0529 52.0387 69.7169C61.7097 65.3169 66.5457 72.2619 66.5457 72.2619C66.5457 72.2619 70.6917 65.7829 79.9027 66.9389Z" fill="#F99A3D"/>
<path d="M105.46 74.5744C108.684 59.0744 108.453 53.2884 108.453 53.2884C107.882 50.8617 107.573 48.3809 107.532 45.8884C107.457 44.9577 107.583 44.0218 107.901 43.1438C108.219 42.2658 108.721 41.4661 109.374 40.7984C112.731 37.4254 118.585 34.0884 125.032 39.1784C131.479 44.2684 128.025 58.3784 128.025 58.3784C128.025 58.3784 128.486 82.9034 125.492 100.719C122.498 118.535 118.814 121.542 118.814 121.542L95.5596 104.883C99.8152 95.118 103.13 84.969 105.46 74.5744Z" fill="#DA5742"/>
<path d="M127.346 22.8508C126.385 23.6934 124.538 23.1583 123.221 21.656C121.904 20.1536 121.615 18.2525 122.576 17.41C123.537 16.5675 125.385 17.1019 126.702 18.6042C128.019 20.1065 128.308 22.0076 127.346 22.8508Z" fill="#F4F3FD"/>
<path d="M7.37186 193.499C3.68486 206.46 8.75086 214.831 11.3989 217.237C14.0469 219.643 37.7639 166.66 37.7639 166.66L15.4279 168.742C15.4279 168.742 11.0529 180.542 7.37186 193.499Z" fill="#C43D28"/>
<path d="M97.7596 99.5879C96.4596 102.888 95.5596 104.888 95.5596 104.888L118.153 121.068L118.945 121.417C119.551 120.774 122.183 117.4 124.637 105.348L97.7596 99.5879Z" fill="#C43D28"/>
<path d="M30.8564 141.44C39.1454 134.04 49.2774 129.872 63.3234 128.483C77.3694 127.094 83.3564 119.229 86.3494 115.989C89.3424 112.749 95.7904 100.719 95.7904 100.719L123.422 112.056C122.217 119.4 120.288 126.608 117.665 133.573C115.055 140.155 111.486 146.314 107.073 151.852C107.073 151.852 110.987 168.511 113.751 188.177C116.515 207.843 116.915 216.867 116.915 216.867H35.7744L38.4544 182.162L8.98145 170.819C8.98145 170.819 22.5674 148.844 30.8564 141.44Z" fill="#3D5CFF"/>
<path d="M112.16 144.577L98.3232 134.73L107.144 151.763C108.974 149.482 110.649 147.081 112.16 144.577Z" fill="#224BF4"/>
<path d="M56.645 150.463L40.527 138.895L17.001 173.908L38.455 182.161L35.775 216.866H50.201L56.645 150.463Z" fill="#224BF4"/>
<path d="M9.67188 165.271L43.2899 176.377" stroke="#EAEAFF" stroke-width="1.158" stroke-miterlimit="10"/>
<path d="M90.0342 103.496L126.416 119.923" stroke="#EAEAFF" stroke-width="1.158" stroke-miterlimit="10"/>
<path opacity="0.55" d="M30.3963 138.896C30.3963 138.896 28.3243 158.796 49.9683 161.569C71.6123 164.343 81.9743 153.937 76.6783 149.537C67.3343 141.782 50.1983 161.105 58.4873 169.897C66.7763 178.689 93.3563 171.352 96.9423 182.161C99.4753 189.796 88.1923 193.729 75.9883 188.177C60.5723 181.162 73.2243 165.738 93.2573 172.214C113.29 178.69 111.909 194.424 102.242 199.051C85.6913 206.971 62.0613 191.271 54.1173 208.075C49.7423 217.33 63.0243 227.267 73.2293 219.643C82.2093 212.933 85.6633 208.075 109.15 206.918C132.637 205.761 133.097 174.526 120.663 165.965C108.229 157.405 91.4153 155.554 89.1133 141.438C86.8113 127.321 100.626 124.547 102.699 133.57C104.772 142.593 82.8993 153.931 81.5153 138.892C79.8803 121.092 95.5613 119.225 108.226 121.307C120.891 123.389 130.56 118.767 123.422 110.438" stroke="#EAEAFF" stroke-width="1.158" stroke-miterlimit="10"/>
<path d="M51.5795 97.0175C48.3555 98.6375 48.1255 103.496 49.5055 106.041C50.8855 108.586 52.9615 109.512 55.4935 109.979C56.8564 110.258 58.253 110.336 59.6385 110.21C59.6385 110.21 59.8685 116.457 59.6385 122.704C59.4085 128.951 58.4875 130.104 58.4875 130.104C62.2852 131.907 66.5068 132.627 70.6875 132.186C77.8255 131.492 78.9765 129.641 78.9765 129.641C78.9765 129.641 78.2855 125.014 78.0555 121.541C77.8255 118.068 77.5945 116.22 77.5945 116.22C77.5945 116.22 85.6535 113.906 86.1145 105.577C86.5755 97.2475 86.1145 95.1645 86.1145 95.1645C86.1145 95.1645 83.1215 94.2395 81.2785 88.4545C79.4355 82.6695 78.0595 81.9785 75.7575 81.9785C73.4555 81.9785 72.9945 84.7545 72.9945 84.7545C72.9945 84.7545 71.1425 81.2585 66.7765 82.9035C63.0925 84.2915 64.4765 89.8445 62.8625 93.3155C62.4396 94.2998 61.8092 95.1813 61.0145 95.8997C60.2198 96.6182 59.2794 97.1567 58.2575 97.4785C58.2575 97.4785 54.8055 95.3975 51.5795 97.0175Z" fill="#DA5742"/>
<path d="M62.1723 118.535C61.4359 118.102 60.5917 117.889 59.7383 117.919C59.7293 119.439 59.6993 121.068 59.6383 122.699C59.4093 128.947 58.4883 130.104 58.4883 130.104C60.2682 130.979 62.1667 131.588 64.1233 131.913C64.3003 131.161 64.5353 130.004 64.7883 128.313C65.3313 124.669 64.4753 119.919 62.1723 118.535Z" fill="#C43D28"/>
<path d="M65.6256 93.3158C65.6256 93.3158 65.1646 91.6958 66.5466 91.2328C66.7127 91.1561 66.8924 91.1131 67.0753 91.1064C67.2582 91.0997 67.4406 91.1293 67.6119 91.1936C67.7832 91.2579 67.9401 91.3555 68.0734 91.4808C68.2067 91.6062 68.3139 91.7567 68.3886 91.9238" fill="white"/>
<path d="M76.6787 89.6139C76.7014 89.2542 76.8542 88.9151 77.1084 88.6597C77.3627 88.4043 77.7012 88.2501 78.0607 88.2259C78.4273 88.145 78.8105 88.1928 79.146 88.3613C79.4814 88.5297 79.7486 88.8086 79.9027 89.1509" fill="white"/>
<path d="M74.2912 93.3242C74.5616 93.5586 74.814 93.8129 75.0462 94.0852C75.2802 94.3705 75.4777 94.684 75.6342 95.0182L75.7342 95.2882C75.7506 95.3358 75.7629 95.3846 75.7712 95.4342C75.7824 95.4853 75.7901 95.5371 75.7942 95.5892C75.8131 95.8031 75.7734 96.0182 75.6792 96.2112C75.4862 96.5533 75.1906 96.8262 74.8342 96.9912C74.1897 97.3 73.4858 97.4651 72.7712 97.4752C73.4307 97.2881 74.0643 97.0193 74.6572 96.6752C74.9247 96.5216 75.1434 96.2956 75.2882 96.0232C75.3448 95.898 75.3662 95.7597 75.3502 95.6232C75.348 95.5894 75.3426 95.556 75.3342 95.5232C75.3279 95.4869 75.3178 95.4514 75.3042 95.4172L75.2212 95.1952C74.9239 94.5952 74.5277 94.0496 74.0492 93.5812C73.5722 93.0902 73.0612 92.6232 72.5342 92.1582C73.1684 92.4683 73.7591 92.8603 74.2912 93.3242Z" fill="#1F1F39"/>
<path d="M68.2516 98.3914C67.8676 98.3873 67.5004 98.2338 67.2277 97.9634C66.9551 97.693 66.7986 97.327 66.7915 96.9431C66.7032 96.5696 66.7639 96.1764 66.9606 95.8468C67.1574 95.5173 67.4748 95.2774 67.8455 95.178C68.2291 95.1823 68.5959 95.3359 68.8683 95.6061C69.1406 95.8763 69.2971 96.2419 69.3045 96.6255C69.393 96.9989 69.3326 97.3922 69.1361 97.7219C68.9395 98.0516 68.6223 98.2917 68.2516 98.3914Z" fill="#1F1F39"/>
<path d="M79.9926 97.0053C79.6087 97.0011 79.2415 96.8474 78.969 96.5769C78.6965 96.3064 78.5401 95.9403 78.5331 95.5564C78.4449 95.1829 78.5057 94.7897 78.7026 94.4603C78.8995 94.1308 79.217 93.891 79.5877 93.7917C79.9713 93.7962 80.3381 93.9499 80.6104 94.2202C80.8826 94.4905 81.0389 94.8562 81.0462 95.2397C81.1346 95.6132 81.0741 96.0065 80.8774 96.3361C80.6807 96.6657 80.3634 96.9058 79.9926 97.0053Z" fill="#1F1F39"/>
<path d="M74.836 101.413C75.8647 101.215 76.8687 100.905 77.83 100.488C77.83 100.488 79.212 104.188 77.83 107.198C77.588 107.78 77.1844 108.28 76.667 108.64C76.1496 109 75.54 109.204 74.9104 109.228C74.2807 109.253 73.6572 109.096 73.1136 108.777C72.5701 108.458 72.1291 107.991 71.843 107.429C71.2259 105.564 70.9149 103.61 70.922 101.645C72.2308 101.77 73.5511 101.692 74.836 101.413Z" fill="white"/>
<path d="M59.6391 110.201C59.6391 110.201 59.6391 110.314 59.6511 110.523C60.1409 108.685 60.293 106.773 60.1001 104.88C59.8486 102.339 59.2729 99.8407 58.3871 97.4459L58.2581 97.4809C58.2581 97.4809 54.8061 95.4009 51.5801 97.0179C48.3541 98.6349 48.1261 103.501 49.5061 106.041C50.8861 108.581 52.9601 109.512 55.4931 109.974C56.8564 110.253 58.2534 110.329 59.6391 110.201Z" fill="#C43D28"/>
<path d="M52.501 101.182C54.2443 101.956 55.8718 102.968 57.337 104.19C59.869 106.272 60.101 107.66 60.101 107.66" stroke="#1F1F39" stroke-width="0.579" stroke-miterlimit="10" stroke-linecap="round"/>
<path d="M125.034 39.176C121.592 36.462 118.32 36.143 115.506 36.952C117.286 42.031 121.461 53.606 123.422 56.297C123.958 57.0381 124.647 57.6551 125.443 58.1061C126.239 58.5572 127.123 58.8317 128.034 58.911C128.034 58.566 128.027 58.379 128.027 58.379C128.027 58.379 131.482 44.262 125.034 39.176Z" fill="#C43D28"/>
<path d="M71.8434 119.229C73.7165 120.591 75.8438 121.565 78.0994 122.091C78.0854 121.906 78.0714 121.723 78.0604 121.543C77.8604 118.575 77.6664 116.795 77.6134 116.343C77.2884 116.373 76.9314 116.408 76.5384 116.454C74.5584 116.683 68.3894 115.758 68.3894 115.758C68.3894 115.758 67.4684 116.221 71.8434 119.229Z" fill="#C43D28"/>
<path d="M128.534 55.6764C127.899 56.042 127.144 56.1404 126.436 55.9499C125.729 55.7594 125.126 55.2955 124.76 54.6604L116.471 40.2354C116.107 39.5974 116.009 38.8416 116.198 38.1318C116.387 37.422 116.848 36.8154 117.482 36.4434L118.082 36.0964C118.717 35.7313 119.471 35.6332 120.178 35.8235C120.885 36.0138 121.488 36.477 121.854 37.1114L130.143 51.5374C130.506 52.175 130.604 52.9299 130.415 53.639C130.226 54.348 129.765 54.9541 129.133 55.3264L128.534 55.6764Z" fill="#DADAF7"/>
<path d="M68.1592 115.527C69.8593 116.139 71.6524 116.452 73.4592 116.452C74.8436 116.493 76.2289 116.416 77.6002 116.221" stroke="#1F1F39" stroke-width="0.579" stroke-miterlimit="10" stroke-linecap="round"/>
<path d="M120.429 39.1751C120.202 40.0351 120.285 40.9475 120.664 41.7522C121.043 42.5569 121.693 43.2023 122.501 43.5751C122.275 44.7489 122.436 45.9645 122.962 47.0381C123.149 47.5961 123.532 48.0675 124.04 48.3652C124.548 48.663 125.146 48.767 125.725 48.6581C125.725 48.6581 125.034 51.4381 128.488 52.3631C131.942 53.2881 134.705 50.2811 134.245 47.7361C133.568 44.4209 132.405 41.2242 130.791 38.2501C130.474 37.63 130.036 37.0797 129.503 36.6319C128.97 36.184 128.352 35.8476 127.686 35.6427C127.021 35.4378 126.321 35.3684 125.628 35.4387C124.935 35.5091 124.264 35.7176 123.653 36.0521C122.294 36.6761 120.735 37.7451 120.429 39.1751Z" fill="#DA5742"/>
<path d="M122.635 43.6178L127.797 41.2578L122.635 43.6178Z" fill="#1F1F39"/>
<path d="M122.635 43.6178L127.797 41.2578" stroke="#1F1F39" stroke-width="0.579" stroke-miterlimit="10" stroke-linecap="round"/>
<path d="M125.725 48.6601L131.025 46.5781L125.725 48.6601Z" fill="#1F1F39"/>
<path d="M125.725 48.6601L131.025 46.5781" stroke="#1F1F39" stroke-width="0.579" stroke-miterlimit="10" stroke-linecap="round"/>
<path d="M127.106 5.39547L128.948 1.23047L127.106 5.39547Z" fill="#1F1F39"/>
<path d="M127.106 5.39547L128.948 1.23047" stroke="#1F1F39" stroke-width="0.579" stroke-miterlimit="10" stroke-linecap="round"/>
<path d="M136.388 13.6411L140.388 11.4941L136.388 13.6411Z" fill="#1F1F39"/>
<path d="M136.388 13.6411L140.388 11.4941" stroke="#1F1F39" stroke-width="0.579" stroke-miterlimit="10" stroke-linecap="round"/>
<path d="M138.424 25.9258L142.96 26.0458L138.424 25.9258Z" fill="#1F1F39"/>
<path d="M138.424 25.9258L142.96 26.0458" stroke="#1F1F39" stroke-width="0.579" stroke-miterlimit="10" stroke-linecap="round"/>
<path d="M98.3232 134.73L99.9792 137.969L107.073 151.851" stroke="#1F1F39" stroke-width="0.579" stroke-miterlimit="10" stroke-linecap="round"/>
<path d="M108.137 42.2307C108.137 42.2307 112.261 37.3797 114.964 37.0047C117.667 36.6297 119.047 37.5547 118.817 40.5627C118.587 43.5707 114.211 46.5787 114.211 46.5787" fill="#DA5742"/>
<path d="M108.137 42.2307C108.137 42.2307 112.261 37.3797 114.964 37.0047C117.667 36.6297 119.047 37.5547 118.817 40.5627C118.587 43.5707 114.211 46.5787 114.211 46.5787" stroke="#1F1F39" stroke-width="0.579" stroke-miterlimit="10" stroke-linecap="round"/>
<path d="M78.3914 105.097C77.4666 104.802 76.4856 104.729 75.5274 104.884C74.0795 105.056 72.6931 105.569 71.4814 106.381C71.5745 106.739 71.6955 107.089 71.8434 107.429C72.1297 107.99 72.5706 108.457 73.1141 108.776C73.6575 109.094 74.2808 109.251 74.9103 109.226C75.5398 109.202 76.1491 108.998 76.6664 108.639C77.1837 108.279 77.5873 107.779 77.8294 107.198C78.1275 106.532 78.3173 105.822 78.3914 105.097Z" fill="#F9D2DD"/>
<path d="M84.9834 102.919C82.2573 103.14 79.9358 101.952 79.7992 100.266C79.6625 98.5794 81.7625 97.0337 84.4886 96.8128C87.2146 96.5919 89.5361 97.7793 89.6728 99.4657C89.8095 101.152 87.7104 102.698 84.9834 102.919Z" fill="#C43D28"/>
<path d="M65.5674 105.403C62.8413 105.624 60.5198 104.437 60.3831 102.75C60.2465 101.064 62.3465 99.5181 65.0726 99.2972C67.7986 99.0763 70.1201 100.264 70.2568 101.95C70.3935 103.637 68.2944 105.182 65.5674 105.403Z" fill="#C43D28"/>
<path d="M0.000976562 216.867H139.771H0.000976562Z" fill="#1F1F39"/>
<path d="M0.000976562 216.867H139.771" stroke="#1F1F39" stroke-width="0.579" stroke-miterlimit="10"/>
<path d="M25.099 169.204C30.165 160.643 36.864 140.158 39.158 136.171C39.7218 135.061 40.5907 134.135 41.6626 133.502C42.7344 132.869 43.9647 132.554 45.209 132.596C45.209 132.596 44.445 122.696 44.445 119.227C44.445 115.758 46.745 113.443 48.82 115.062C50.895 116.681 52.504 128.713 52.504 128.713C52.504 128.713 57.288 118.506 59.731 118.752C62.174 118.998 62.863 121.08 61.711 125.476C60.8299 128.625 59.7532 131.716 58.487 134.731C58.487 134.731 62.401 132.417 64.244 134.5C66.087 136.583 62.858 141.671 60.33 145.141C59.0476 146.826 57.893 148.605 56.876 150.462C56.876 150.462 48.358 194.654 43.751 206.686C39.144 218.718 29.935 223.345 22.337 222.65C14.739 221.955 5.297 216.172 8.981 201.136C8.981 201.136 20.034 177.765 25.099 169.204Z" fill="#DA5742"/>
<path d="M40.9883 141.439C40.9883 141.439 41.2183 145.139 43.2883 146.066C45.3583 146.993 46.7423 145.141 47.2023 143.29C47.4475 141.37 47.4485 139.426 47.2053 137.506" stroke="#1F1F39" stroke-width="0.579" stroke-miterlimit="10" stroke-linecap="round"/>
<path d="M47.2051 144.45C47.2051 144.45 47.8961 146.995 49.9681 146.301C52.0401 145.607 52.5051 143.522 52.7311 141.209C52.8499 139.586 52.774 137.954 52.5051 136.35" stroke="#1F1F39" stroke-width="0.579" stroke-miterlimit="10" stroke-linecap="round"/>
<path d="M54.5732 137.969C54.5732 137.969 56.1852 136.581 57.1062 135.887C57.5907 135.532 58.052 135.145 58.4872 134.73" stroke="#1F1F39" stroke-width="0.579" stroke-miterlimit="10" stroke-linecap="round"/>
<path d="M40.5303 134.731C40.5303 134.731 40.9883 133.111 45.1303 132.649C47.5176 132.356 49.9388 132.513 52.2683 133.112" stroke="#1F1F39" stroke-width="0.579" stroke-miterlimit="10" stroke-linecap="round"/>
</svg>
