<svg width="335" height="108" viewBox="0 0 335 108" fill="none" xmlns="http://www.w3.org/2000/svg">
<path d="M187 108L323 108C329.627 108 335 102.627 335 96V42.54C335 35.9126 329.627 30.54 323 30.54L187 30.54C180.373 30.54 175 35.9126 175 42.54V96C175 102.627 180.373 108 187 108Z" fill="#EFE0FF"/>
<path d="M275.765 70.3748L274.377 78.9268L264.487 83.7598L266.098 74.9598L275.765 70.3748Z" fill="#DADAF7"/>
<path d="M275.637 35.9174C275.637 35.9174 276.637 31.5804 274.154 30.9614C272.649 30.5862 271.115 30.3374 269.568 30.2174L253.791 107.691L263.248 107.679L275.637 35.9174Z" fill="#DADAF7"/>
<path d="M269.568 30.0927C269.568 30.0927 271.055 30.0927 271.551 30.7127C271.865 31.2786 271.995 31.9285 271.923 32.5717L257.98 107.678L204.005 107.678L223.463 28.9767C223.463 28.9767 224.703 25.6307 229.037 26.6227L269.568 30.0927Z" fill="#EAEAFF"/>
<path d="M265.974 37.405C265.974 37.405 266.222 35.794 264.859 35.67L226.686 32.2L218.878 69.258L254.82 75.083C254.82 75.083 258.662 76.075 259.158 73.224L265.974 37.405Z" fill="white"/>
<path d="M281.961 107.803H286.299L271.055 51.6587L269.444 60.4587L281.961 107.803Z" fill="#DADAF7"/>
<path d="M194.442 65.082C188.442 65.082 186.142 58.798 190.922 55.911C191.792 55.3953 192.801 55.1624 193.809 55.2447C194.817 55.3269 195.774 55.7201 196.549 56.37C196.549 56.37 196.537 50.976 202.882 51.076C209.227 51.176 208.482 57.93 208.482 57.93C208.482 57.93 211.768 58.03 212.165 60.967C212.611 64.214 208.546 65.082 206.439 65.082H194.442Z" fill="white"/>
<path d="M269.332 72.9267L277.425 58.2027C277.281 56.7025 277.281 55.192 277.425 53.6917C277.741 52.3449 277.551 50.9291 276.892 49.7127C276.359 49.0557 274.773 45.4737 275.826 44.1477C276.879 42.8217 279.011 43.6147 280.065 44.6807C281.119 45.7467 284.043 48.7957 284.043 48.7957C284.043 48.7957 291.603 49.1917 292.932 51.8447C294.261 54.4977 282.332 86.8447 278.89 90.6867C275.448 94.5287 265.368 92.4097 260.721 89.1007C256.074 85.7917 263.37 68.9527 263.37 68.9527L269.332 72.9267Z" fill="#F9D2DD"/>
<path d="M260.731 89.0987C256.096 85.7897 263.387 68.9467 263.387 68.9467L267.287 71.5467L265.093 91.3047C263.548 90.7642 262.082 90.0225 260.731 89.0987Z" fill="#F9ACC0"/>
<path d="M276.384 48.7831L280.871 45.4621C281.809 46.4291 283.089 47.7671 283.709 48.3991L277.537 52.1621C277.578 51.3013 277.359 50.4481 276.909 49.7131C276.703 49.4214 276.527 49.1099 276.384 48.7831Z" fill="#F9ACC0"/>
<path d="M289.497 65.3652C289.497 64.5222 289.497 61.1262 288.171 60.3212C286.808 59.5032 282.871 60.1852 281.008 58.3382C279.801 56.9525 279.018 55.2488 278.752 53.4302L277.389 53.9632L277.426 53.7032C277.438 53.5792 277.463 53.4682 277.476 53.3442V53.2942C277.491 53.1915 277.5 53.088 277.501 52.9842V52.9592C277.513 52.7362 277.526 52.5252 277.526 52.3152L278.479 50.5052L288.332 50.8152C289.906 51.7202 292.372 50.7052 292.944 51.8432C293.452 52.8592 292.002 58.2632 289.833 64.7572C289.734 64.9668 289.622 65.1699 289.497 65.3652Z" fill="#F9ACC0"/>
<path d="M274.412 56.3787L292.98 37.8127C293.129 37.6628 293.213 37.46 293.213 37.2487C293.213 37.0373 293.129 36.8346 292.98 36.6847C292.83 36.5357 292.628 36.4521 292.416 36.4521C292.205 36.4521 292.002 36.5357 291.852 36.6847L273.286 55.2527C273.137 55.4026 273.054 55.6053 273.054 55.8167C273.054 56.028 273.137 56.2308 273.286 56.3807C273.436 56.5288 273.639 56.6117 273.85 56.6113C274.061 56.611 274.263 56.5273 274.412 56.3787Z" fill="white"/>
<path d="M274.376 57.409C273.976 58.599 272.517 58.995 272.257 59.801C272.177 60.0177 272.148 60.2499 272.171 60.4797C272.195 60.7096 272.271 60.931 272.393 61.127C271.906 60.8892 271.504 60.5067 271.242 60.0319C270.981 59.557 270.872 59.0129 270.931 58.474C271.067 56.479 272.257 54.756 273.979 55.686C274.227 55.8887 274.4 56.1678 274.472 56.4796C274.544 56.7915 274.51 57.1183 274.376 57.409Z" fill="#E88524"/>
<path d="M289.497 57.9417C286.052 59.4037 284.056 59.4037 283.263 59.0077C282.47 58.6117 282.73 57.2847 282.73 57.2847C282.73 57.2847 281.404 57.1487 281.007 56.3547C280.891 56.1286 280.83 55.878 280.83 55.6237C280.83 55.3695 280.891 55.1189 281.007 54.8927C280.637 54.8181 280.29 54.6597 279.992 54.4298C279.693 54.2 279.451 53.9047 279.285 53.5667C279.156 53.3223 279.089 53.0501 279.089 52.7737C279.089 52.4974 279.156 52.2252 279.285 51.9807C278.88 51.95 278.495 51.7919 278.186 51.5291C277.876 51.2663 277.658 50.9123 277.562 50.5177C276.906 48.3987 283.796 42.9577 288.431 44.5567C291.108 45.4617 292.819 50.2667 293.079 51.1747C293.387 52.5445 293.196 53.9795 292.539 55.2205C291.882 56.4615 290.803 57.4267 289.497 57.9417Z" fill="#F9D2DD"/>
<path d="M284.738 49.0535L278.802 51.8535L284.738 49.0535Z" fill="#1F1F39"/>
<path d="M278.863 51.9668L284.799 49.1658C284.815 49.1586 284.829 49.1483 284.84 49.1355C284.852 49.1228 284.861 49.108 284.866 49.0918C284.872 49.0756 284.875 49.0584 284.874 49.0413C284.873 49.0241 284.869 49.0073 284.861 48.9918C284.854 48.976 284.844 48.9618 284.831 48.95C284.819 48.9382 284.804 48.9291 284.788 48.9233C284.771 48.9175 284.754 48.9151 284.737 48.9162C284.719 48.9173 284.703 48.922 284.687 48.9298L278.751 51.7298C278.736 51.7371 278.722 51.7474 278.71 51.7602C278.699 51.7729 278.69 51.7877 278.684 51.8039C278.678 51.8201 278.676 51.8373 278.677 51.8544C278.677 51.8716 278.682 51.8884 278.689 51.9038C278.697 51.927 278.712 51.9469 278.732 51.9604C278.753 51.9738 278.777 51.98 278.801 51.9778C278.822 51.9802 278.844 51.9764 278.863 51.9668Z" fill="#1F1F39"/>
<path d="M286.448 52.2406L281.007 54.8926L286.448 52.2406Z" fill="#1F1F39"/>
<path d="M281.068 55.0025L286.509 52.3525C286.525 52.3452 286.539 52.3349 286.55 52.3222C286.562 52.3095 286.571 52.2946 286.576 52.2784C286.582 52.2622 286.585 52.2451 286.584 52.2279C286.583 52.2108 286.579 52.194 286.571 52.1785C286.564 52.1629 286.554 52.149 286.541 52.1374C286.528 52.1259 286.513 52.117 286.497 52.1112C286.481 52.1054 286.464 52.1029 286.447 52.1038C286.429 52.1047 286.413 52.109 286.397 52.1165L280.957 54.7695C280.942 54.7768 280.928 54.7871 280.916 54.7998C280.905 54.8125 280.896 54.8274 280.89 54.8435C280.884 54.8597 280.882 54.8769 280.883 54.894C280.883 54.9112 280.888 54.928 280.895 54.9435C280.904 54.9656 280.92 54.9846 280.94 54.9978C280.96 55.011 280.983 55.0178 281.007 55.0175C281.029 55.0184 281.05 55.0132 281.068 55.0025Z" fill="#1F1F39"/>
<path d="M287.775 54.8934L282.731 57.2734L287.775 54.8934Z" fill="#1F1F39"/>
<path d="M282.791 57.3968L287.835 55.0048C287.851 54.9975 287.865 54.9872 287.876 54.9745C287.888 54.9618 287.897 54.9469 287.903 54.9307C287.908 54.9145 287.911 54.8974 287.91 54.8802C287.909 54.8631 287.905 54.8463 287.897 54.8308C287.89 54.8152 287.88 54.8013 287.867 54.7897C287.854 54.7782 287.839 54.7693 287.823 54.7635C287.807 54.7578 287.79 54.7553 287.773 54.7562C287.756 54.7571 287.739 54.7614 287.723 54.7688L282.679 57.1618C282.664 57.1691 282.65 57.1794 282.638 57.1921C282.627 57.2048 282.618 57.2197 282.612 57.2359C282.606 57.2521 282.604 57.2692 282.605 57.2864C282.606 57.3035 282.61 57.3203 282.617 57.3358C282.626 57.358 282.642 57.3769 282.662 57.3901C282.682 57.4033 282.705 57.4102 282.729 57.4098C282.751 57.4115 282.772 57.407 282.791 57.3968Z" fill="#1F1F39"/>
<path d="M266.693 78.0918L269.345 72.9118L266.693 78.0918Z" fill="#1F1F39"/>
<path d="M266.817 78.1428L269.469 72.9748C269.478 72.9597 269.484 72.9427 269.486 72.9251C269.488 72.9074 269.485 72.8896 269.479 72.8728C269.474 72.8561 269.464 72.841 269.451 72.8285C269.439 72.816 269.423 72.8065 269.407 72.8008C269.391 72.7914 269.374 72.7856 269.357 72.7837C269.339 72.7818 269.321 72.7839 269.305 72.7898C269.288 72.7958 269.273 72.8054 269.26 72.8181C269.248 72.8307 269.238 72.846 269.233 72.8628L266.586 78.0308C266.576 78.0459 266.57 78.0629 266.568 78.0805C266.566 78.0982 266.569 78.116 266.575 78.1328C266.58 78.1495 266.59 78.1646 266.603 78.1771C266.615 78.1896 266.631 78.1991 266.648 78.2048C266.66 78.2168 266.673 78.2168 266.698 78.2168C266.722 78.2164 266.746 78.2093 266.767 78.1963C266.788 78.1833 266.805 78.1648 266.817 78.1428Z" fill="#1F1F39"/>
<path d="M202.654 67.7583C194.177 76.2483 192.838 82.6683 190.979 88.8653C189.12 95.0623 188.513 107.654 188.513 107.654H214.019L223.847 57.5453C223.847 57.5453 211.131 59.2683 202.654 67.7583Z" fill="#F9ACC0"/>
<path d="M260.632 107.666L205.281 107.666L205.975 83.537L190.991 83.537C190.991 83.537 195.758 68.687 206.904 61.66C218.05 54.633 230.304 53.86 238.335 55.96C253.058 59.8 264.858 68.823 264.858 68.823L262.602 91.095L256.616 88.567L260.632 107.666Z" fill="#F99A3D"/>
<path d="M216.435 82.606L210.598 64.573C210.598 64.573 227.565 67.882 238.571 88.84C243.702 98.594 243.764 104.332 242.363 107.666H205.269L205.864 86.919L216.435 82.606Z" fill="#E88524"/>
<path d="M262.453 91.0312L256.777 88.6403L253.963 79.5312L262.453 91.0312Z" fill="#E88524"/>
<path d="M244.659 65.7127C244.654 65.9235 244.604 66.1307 244.512 66.3205C244.42 66.5102 244.288 66.6781 244.126 66.8127C243.804 67.1127 243.407 67.2957 243.073 67.5687C242.893 67.698 242.746 67.8694 242.647 68.0681C242.548 68.2668 242.498 68.4867 242.503 68.7087C242.519 68.9446 242.599 69.1716 242.734 69.3654C242.87 69.5593 243.055 69.7125 243.271 69.8087C243.506 69.9207 243.296 70.2547 243.071 70.1557C242.872 70.0632 242.694 69.9324 242.546 69.7708C242.398 69.6091 242.283 69.4199 242.208 69.2139C242.133 69.0079 242.1 68.7891 242.11 68.5701C242.119 68.3511 242.172 68.1362 242.265 67.9377C242.487 67.5363 242.818 67.2056 243.219 66.9837C243.605 66.785 243.934 66.4906 244.173 66.1287C244.446 65.6287 244.099 65.1617 243.773 64.7907C243.604 64.6097 243.889 64.3247 244.05 64.5227C244.374 64.8449 244.587 65.2616 244.659 65.7127Z" fill="white"/>
<path d="M245.796 78.269C245.437 78.542 245.015 78.728 244.681 79.037C244.503 79.1944 244.382 79.4061 244.338 79.6393C244.293 79.8724 244.326 80.1139 244.433 80.326C244.76 80.8671 245.245 81.2955 245.822 81.554C245.868 81.5805 245.902 81.6242 245.915 81.6755C245.929 81.7268 245.922 81.7815 245.895 81.8275C245.869 81.8735 245.825 81.9071 245.774 81.9209C245.723 81.9347 245.668 81.9275 245.622 81.901C245.095 81.6456 244.63 81.2772 244.261 80.822C244.095 80.609 243.986 80.3579 243.942 80.0916C243.899 79.8253 243.923 79.5525 244.013 79.298C244.397 78.398 245.55 78.245 246.033 77.427C246.177 77.1864 246.264 76.9154 246.285 76.6356C246.307 76.3558 246.263 76.0748 246.157 75.815C246.134 75.7682 246.129 75.7148 246.143 75.6646C246.156 75.6144 246.188 75.5708 246.231 75.542C246.254 75.5267 246.279 75.5163 246.307 75.5114C246.334 75.5065 246.361 75.5072 246.388 75.5134C246.415 75.5197 246.44 75.5315 246.462 75.5479C246.484 75.5643 246.502 75.5851 246.516 75.609C246.71 76.0692 246.744 76.5809 246.614 77.0629C246.483 77.5448 246.195 77.9694 245.796 78.269Z" fill="white"/>
<path d="M260.037 74.413C260.096 74.0502 260.079 73.6792 259.988 73.323C259.74 72.691 258.935 72.654 258.364 72.802C257.744 72.976 257.087 73.434 256.431 73.161C256.166 73.0217 255.936 72.8228 255.759 72.58C255.583 72.3371 255.465 72.0569 255.415 71.761C255.339 71.4288 255.329 71.0847 255.386 70.7486C255.444 70.4126 255.567 70.0912 255.749 69.803C255.885 69.592 256.232 69.791 256.096 70.003C255.939 70.2484 255.831 70.5225 255.779 70.8096C255.728 71.0967 255.734 71.3912 255.796 71.676C255.92 72.221 256.304 72.903 256.949 72.841C257.285 72.7752 257.611 72.6649 257.918 72.513C258.236 72.3854 258.576 72.3176 258.918 72.313C259.221 72.3015 259.52 72.3811 259.777 72.5416C260.033 72.7021 260.236 72.936 260.358 73.213C260.464 73.5912 260.49 73.9873 260.434 74.376C260.4 74.8026 260.33 75.2255 260.223 75.64C260.205 75.6852 260.171 75.7222 260.128 75.7442C260.084 75.7661 260.034 75.7714 259.987 75.7592C259.94 75.7469 259.899 75.7179 259.872 75.6775C259.845 75.6372 259.833 75.5883 259.839 75.54C259.936 75.1705 260.002 74.7935 260.037 74.413Z" fill="white"/>
<path d="M252.887 95.1727C252.751 95.1444 252.61 95.1512 252.477 95.1922C252.344 95.2333 252.224 95.3075 252.127 95.4077C251.879 95.6077 251.656 95.8287 251.408 96.0277C251.151 96.2281 250.877 96.4064 250.59 96.5607C250.024 96.8736 249.38 97.0167 248.735 96.9727C248.163 96.9087 247.63 96.649 247.227 96.2377C247.001 96.0169 246.832 95.7452 246.733 95.4454C246.634 95.1457 246.608 94.8265 246.657 94.5147C246.707 94.2667 247.091 94.3657 247.041 94.6267C247.007 94.8969 247.042 95.1715 247.143 95.4244C247.244 95.6774 247.408 95.9005 247.619 96.0727C247.84 96.2692 248.1 96.4171 248.382 96.5068C248.664 96.5966 248.961 96.6262 249.255 96.5937C249.899 96.5095 250.51 96.259 251.027 95.8667C251.527 95.5077 251.944 94.9127 252.564 94.7887C252.715 94.7585 252.871 94.7664 253.019 94.8118C253.166 94.8572 253.299 94.9386 253.407 95.0487C253.516 95.1486 253.589 95.2822 253.614 95.4283C253.638 95.5743 253.614 95.7244 253.543 95.8547C253.514 95.9017 253.468 95.9356 253.414 95.9493C253.361 95.9629 253.304 95.9553 253.256 95.9281C253.208 95.9008 253.172 95.8559 253.156 95.8029C253.14 95.7499 253.146 95.6928 253.171 95.6437C253.283 95.4447 253.06 95.2467 252.887 95.1727Z" fill="white"/>
<path d="M238.758 81.8617C238.807 82.1432 238.787 82.4324 238.701 82.7048C238.615 82.9773 238.464 83.2249 238.262 83.4267C237.862 83.8357 237.345 84.0837 236.911 84.4557C236.527 84.7907 236.056 85.3557 236.304 85.8937C236.527 86.4017 237.234 86.4887 237.717 86.4267C237.767 86.4148 237.821 86.4222 237.867 86.4472C237.912 86.4723 237.947 86.5134 237.965 86.5627C237.99 86.6497 237.928 86.7977 237.829 86.8107C237.565 86.863 237.293 86.8626 237.029 86.8094C236.765 86.7562 236.515 86.6512 236.292 86.5007C236.075 86.3221 235.926 86.0739 235.871 85.7983C235.817 85.5226 235.859 85.2365 235.992 84.9887C236.293 84.4482 236.741 84.004 237.284 83.7077C237.543 83.5771 237.773 83.3956 237.96 83.1742C238.147 82.9527 238.288 82.6957 238.374 82.4187C238.398 82.0738 238.345 81.7279 238.218 81.4062C238.092 81.0846 237.895 80.7953 237.642 80.5597C237.468 80.3857 237.742 80.1007 237.915 80.2867C238.344 80.7178 238.637 81.2655 238.758 81.8617Z" fill="white"/>
<path d="M241.819 103.019C241.67 103.626 241.162 104.11 241.063 104.742C241.024 105.011 241.063 105.286 241.175 105.534C241.287 105.782 241.467 105.993 241.695 106.142C241.968 106.308 242.289 106.38 242.607 106.347C242.925 106.313 243.223 106.176 243.455 105.956C243.641 105.782 243.926 106.056 243.74 106.241C243.522 106.448 243.257 106.599 242.968 106.684C242.679 106.768 242.375 106.782 242.079 106.726C241.788 106.663 241.517 106.528 241.292 106.332C241.067 106.137 240.894 105.888 240.79 105.609C240.686 105.32 240.65 105.01 240.687 104.704C240.723 104.399 240.831 104.106 241 103.849C241.179 103.574 241.325 103.279 241.434 102.969C241.507 102.708 241.498 102.432 241.409 102.176C241.315 101.888 241.137 101.635 240.899 101.448C240.661 101.262 240.373 101.149 240.071 101.126C239.811 101.114 239.811 100.717 240.059 100.726C240.333 100.743 240.599 100.819 240.841 100.948C241.082 101.077 241.293 101.256 241.46 101.473C241.627 101.69 241.745 101.94 241.807 102.207C241.869 102.474 241.873 102.751 241.819 103.019Z" fill="white"/>
<path d="M220.104 61.8587C220.019 62.4259 219.785 62.9604 219.426 63.4077C219.245 63.6339 219.051 63.849 218.844 64.0517C218.649 64.2277 218.5 64.4488 218.41 64.6957C218.336 65.0057 218.596 65.1667 218.856 65.2657C219.197 65.3985 219.562 65.4538 219.926 65.4277C220.186 65.4157 220.186 65.8117 219.926 65.8277C219.6 65.8403 219.274 65.8025 218.959 65.7157C218.682 65.654 218.426 65.5217 218.215 65.3317C217.794 64.8857 218.091 64.3157 218.426 63.9317C218.612 63.7207 218.826 63.5317 218.996 63.3247C219.192 63.1 219.356 62.8501 219.485 62.5817C219.738 62.1004 219.804 61.5428 219.671 61.0157C219.609 60.7524 219.48 60.5094 219.297 60.3098C219.114 60.1103 218.883 59.9609 218.626 59.8757C218.598 59.8721 218.571 59.8625 218.547 59.8476C218.523 59.8327 218.502 59.8128 218.486 59.7893C218.47 59.7658 218.46 59.7391 218.455 59.7111C218.45 59.6831 218.451 59.6544 218.458 59.627C218.466 59.5995 218.478 59.5739 218.496 59.5518C218.514 59.5297 218.536 59.5116 218.562 59.4988C218.587 59.486 218.615 59.4788 218.643 59.4776C218.672 59.4763 218.7 59.4812 218.726 59.4917C219.196 59.6634 219.591 59.9941 219.843 60.4264C220.094 60.8587 220.187 61.3654 220.104 61.8587Z" fill="white"/>
<path d="M232.499 69.5424C231.805 69.8154 231.599 70.5424 231.399 71.2034C231.333 71.5755 231.184 71.9281 230.963 72.2348C230.742 72.5416 230.455 72.7947 230.123 72.9754C229.413 73.2903 228.609 73.3169 227.88 73.0494C227.473 72.876 227.107 72.6202 226.804 72.2982C226.501 71.9762 226.268 71.5949 226.12 71.1784C226.033 70.9434 226.42 70.8314 226.504 71.0664C226.636 71.4234 226.838 71.7501 227.099 72.0269C227.36 72.3037 227.674 72.525 228.023 72.6774C228.369 72.7994 228.738 72.8417 229.103 72.8014C229.478 72.7862 229.844 72.6798 230.169 72.4914C230.813 72.0824 230.937 71.2644 231.16 70.5914C231.247 70.2577 231.412 69.9498 231.643 69.6939C231.874 69.438 232.164 69.2416 232.487 69.1214C232.847 69.0013 233.235 68.9864 233.604 69.0785C233.972 69.1706 234.307 69.3658 234.569 69.6414C234.743 69.8274 234.457 70.1124 234.284 69.9264C234.06 69.6902 233.769 69.5272 233.451 69.4587C233.132 69.3902 232.801 69.4194 232.499 69.5424Z" fill="white"/>
<path d="M198.552 69.2581C198.696 69.4511 198.796 69.673 198.845 69.9083C198.894 70.1436 198.892 70.3869 198.837 70.6211C198.722 71.1175 198.655 71.6239 198.637 72.1331C198.652 72.3538 198.735 72.5645 198.875 72.7357C199.015 72.9068 199.205 73.0297 199.418 73.0871C199.661 73.1432 199.915 73.1233 200.145 73.0301C200.376 72.9368 200.572 72.7749 200.707 72.5661C200.857 72.3561 201.187 72.5551 201.055 72.7651C200.933 72.9606 200.77 73.1266 200.576 73.2516C200.382 73.3765 200.163 73.4572 199.935 73.4879C199.707 73.5187 199.474 73.4987 199.255 73.4294C199.035 73.3602 198.833 73.2433 198.663 73.0871C198.501 72.9051 198.38 72.6899 198.31 72.4563C198.239 72.2228 198.22 71.9767 198.254 71.7351C198.371 71.2012 198.446 70.6588 198.477 70.1131C198.452 69.6791 198.093 69.0971 197.577 69.2581C197.329 69.3451 197.218 68.9581 197.465 68.8741C197.664 68.8233 197.874 68.8326 198.067 68.901C198.261 68.9694 198.43 69.0937 198.552 69.2581Z" fill="white"/>
<path d="M234.383 59.0954C232.877 59.7687 231.259 60.1595 229.611 60.2484C227.193 60.569 224.744 59.938 222.782 58.4884C222.053 57.8611 221.462 57.0887 221.047 56.2204C220.935 55.9974 221.282 55.7864 221.394 56.0204C221.746 56.7446 222.219 57.4029 222.794 57.9664C223.491 58.6148 224.32 59.1053 225.223 59.4044C226.449 59.7875 227.733 59.951 229.015 59.8874C230.617 59.8629 232.203 59.5583 233.7 58.9874C235.313 58.3298 236.739 57.2859 237.853 55.9474C237.989 55.7364 238.274 56.0224 238.113 56.2204C237.099 57.4436 235.824 58.4257 234.383 59.0954Z" fill="white"/>
<path d="M262.553 73.2106C262.367 74.4995 262.169 75.7756 261.995 77.0646C261.846 78.1556 261.71 79.2456 261.586 80.3486C261.45 81.6006 261.313 82.8396 261.202 84.0916L260.719 89.3336C260.694 89.6066 260.669 89.8666 260.645 90.1396C260.62 90.3876 260.224 90.3996 260.245 90.1396C260.406 88.3056 260.567 86.4716 260.745 84.6496C260.869 83.3496 260.993 82.0496 261.145 80.7496C261.269 79.6496 261.405 78.5436 261.554 77.4496C261.728 76.1856 261.901 74.9335 262.087 73.6695L262.863 68.4636C262.9 68.1916 262.937 67.9305 262.987 67.6586C262.999 67.5466 263.135 67.4966 263.234 67.5216C263.259 67.5274 263.282 67.5383 263.303 67.5536C263.323 67.5688 263.341 67.588 263.353 67.6101C263.366 67.6322 263.375 67.6566 263.378 67.682C263.381 67.7073 263.378 67.7331 263.371 67.7576C263.098 69.5796 262.825 71.4006 262.553 73.2106Z" fill="white"/>
<path d="M255.576 85.0727C255.353 84.9607 255.551 84.6137 255.776 84.7257C257.46 85.5927 259.133 86.4607 260.816 87.3277C261.039 87.4517 260.841 87.7867 260.616 87.6747C258.934 86.8037 257.261 85.9397 255.576 85.0727Z" fill="white"/>
<path d="M198.18 80.9609H192.367C192.314 80.9609 192.263 80.9399 192.225 80.9024C192.188 80.8649 192.167 80.814 192.167 80.7609C192.167 80.7079 192.188 80.657 192.225 80.6195C192.263 80.582 192.314 80.5609 192.367 80.5609H202.431C202.484 80.5609 202.535 80.582 202.572 80.6195C202.61 80.657 202.631 80.7079 202.631 80.7609C202.631 80.814 202.61 80.8649 202.572 80.9024C202.535 80.9399 202.484 80.9609 202.431 80.9609H198.18Z" fill="white"/>
<path d="M191.3 99.8209L196.741 97.3049C196.756 97.298 196.771 97.2879 196.782 97.2752C196.794 97.2625 196.803 97.2476 196.809 97.2313C196.815 97.215 196.817 97.1977 196.816 97.1804C196.815 97.1632 196.81 97.1463 196.803 97.1309C196.796 97.1151 196.785 97.1009 196.773 97.0891C196.76 97.0773 196.745 97.0682 196.729 97.0624C196.713 97.0566 196.695 97.0542 196.678 97.0553C196.661 97.0564 196.644 97.0611 196.629 97.0689L191.189 99.5859C191.173 99.5929 191.16 99.6029 191.148 99.6152C191.137 99.6274 191.128 99.6419 191.122 99.6576C191.117 99.6733 191.114 99.6899 191.115 99.7067C191.115 99.7234 191.119 99.7398 191.127 99.7549C191.138 99.7777 191.156 99.7967 191.178 99.8098C191.2 99.8228 191.225 99.8295 191.251 99.8289C191.276 99.8339 191.288 99.8339 191.3 99.8209Z" fill="#1F1F39"/>
<path d="M222.609 107.616C221.59 107.615 220.571 107.561 219.558 107.455C216.093 106.973 212.73 105.933 209.599 104.374C205.696 102.599 202.289 99.8913 199.679 96.4895C197.322 93.3826 195.95 89.6406 195.741 85.7465C195.648 83.7685 196.05 81.7987 196.911 80.0155C198.111 77.7705 200.191 77.1155 202.029 76.5345C203.121 76.3212 204.134 75.8104 204.955 75.0585C205.648 74.2265 205.267 73.0455 204.825 71.6785C204.275 69.9785 203.651 68.0445 204.856 66.1605C205.684 64.8525 207.531 64.1895 210.35 64.1895C212.007 64.1895 214.486 65.1165 217.52 66.8695C220.085 68.3746 222.532 70.0725 224.841 71.9485C228.6 75.0085 236.941 85.1485 237.259 95.3485C237.378 96.8497 237.185 98.3594 236.692 99.7824C236.199 101.205 235.416 102.511 234.394 103.616C232.951 105.047 231.176 106.097 229.229 106.674C227.084 107.328 224.851 107.646 222.609 107.616ZM210.597 75.3815C210.013 75.3815 209.443 75.5545 208.958 75.8786C208.473 76.2028 208.094 76.6635 207.871 77.2025C207.648 77.7416 207.589 78.3347 207.703 78.907C207.817 79.4792 208.098 80.0049 208.511 80.4174C208.923 80.83 209.449 81.1109 210.021 81.2248C210.593 81.3386 211.187 81.2802 211.726 81.0569C212.265 80.8336 212.725 80.4555 213.049 79.9704C213.374 79.4853 213.547 78.9149 213.547 78.3315C213.546 77.5493 213.235 76.7994 212.682 76.2464C212.129 75.6933 211.379 75.3822 210.597 75.3815Z" fill="white"/>
<path d="M226.712 82.2079C226.191 80.5469 224.432 79.9279 223.502 81.2779C223.165 81.7844 223.037 82.4017 223.146 83.0002C223.254 83.5988 223.591 84.132 224.084 84.4879C224.553 84.7958 225.11 84.9396 225.67 84.8969C226.097 84.6088 226.426 84.1966 226.613 83.7159C226.799 83.2352 226.834 82.7089 226.712 82.2079Z" fill="#F99A3D"/>
<path d="M228.151 90.7974C227.011 90.6974 226.701 90.7974 226.391 91.6274C226.081 92.4574 227.106 93.2884 228.358 93.3874C228.912 93.4304 229.463 93.278 229.916 92.9566C230.369 92.6352 230.694 92.1652 230.836 91.6284C231.151 90.5864 230.836 89.7694 229.808 89.9674C229.636 90.2452 229.389 90.4698 229.097 90.6163C228.804 90.7628 228.477 90.8255 228.151 90.7974Z" fill="#3C82F5"/>
<path d="M221.108 97.4168C218.939 97.8258 215.519 96.8958 215.308 95.4458C215.097 93.9958 215.928 94.0948 217.068 93.8968C218.279 93.6722 219.395 93.0943 220.277 92.2358C220.534 91.9855 220.852 91.8068 221.2 91.7174C221.547 91.628 221.912 91.6311 222.258 91.7263C222.604 91.8215 222.919 92.0056 223.171 92.2603C223.424 92.5149 223.606 92.8312 223.698 93.1778C223.88 93.6255 223.955 94.1095 223.916 94.5911C223.876 95.0727 223.725 95.5384 223.473 95.9507C223.221 96.363 222.876 96.7105 222.465 96.9651C222.054 97.2198 221.59 97.3745 221.108 97.4168Z" fill="#BEE3C5"/>
<path d="M208.59 90.2777C205.38 89.7567 205.479 88.3067 206.111 87.8977C206.743 87.4887 208.391 87.8977 208.8 87.3767C209.209 86.8557 211.788 85.6177 212.42 87.7997C213.052 89.9817 211.8 90.7987 208.59 90.2777Z" fill="#DA5742"/>
<path d="M221.802 21.8637C217.861 23.5367 216.832 26.0637 215.382 30.6507C213.932 35.2377 214.229 37.7397 212.395 41.2967C211.482 43.2816 209.866 44.8579 207.859 45.7217C207.859 45.7217 211.391 50.6417 228.792 49.8737C245.833 49.1297 251.522 38.9797 251.522 38.9797C251.522 38.9797 245.635 37.8147 243.689 33.7867C241.743 29.7587 239.401 22.5577 234.468 21.5417C229.535 20.5257 228.147 23.4997 228.147 23.4997C227.427 22.5539 226.41 21.8781 225.259 21.5813C224.108 21.2845 222.89 21.384 221.802 21.8637Z" fill="#1F1F39"/>
<path d="M239.426 43.9107C238.996 45.1239 238.281 46.2163 237.342 47.0962C236.402 47.9761 235.265 48.6179 234.026 48.9677C234.026 48.9677 234.226 51.7437 234.646 54.0987L235.067 56.4537C234.439 57.3285 233.602 58.0319 232.632 58.4996C231.662 58.9672 230.591 59.1842 229.515 59.1307C225.636 59.0687 223.851 57.5447 223.851 57.5447C223.851 57.5447 223.863 54.3347 223.566 50.7657C223.269 47.1967 222.798 44.4447 222.798 44.4447C222.798 44.4447 217.023 44.2097 216.49 39.7347C216.019 35.8807 219.898 35.8557 220.877 36.2647C221.856 36.6737 221.877 36.8097 221.877 36.8097C222.135 37.7313 222.466 38.6305 222.868 39.4987C223.066 39.9875 223.395 40.4122 223.819 40.7257C223.352 39.2859 223.083 37.7892 223.019 36.2767C223.017 35.2643 223.167 34.2572 223.465 33.2897L224.541 35.5577L231.358 34.4667L231.506 31.2447L232.969 34.5447L239.525 33.6147C239.525 33.6147 240.925 39.7217 239.426 43.9107Z" fill="#F9D2DD"/>
<path d="M222.795 44.4451C222.395 44.4165 221.998 44.3627 221.605 44.2841C221.512 43.6099 221.379 42.942 221.205 42.2841C220.803 41.0146 220.315 39.7737 219.746 38.5701C220.71 39.1362 221.492 39.9661 222.001 40.9621C222.413 42.0713 222.68 43.2293 222.795 44.4071C222.856 44.6978 222.901 44.9915 222.931 45.2871C222.857 44.7541 222.795 44.4451 222.795 44.4451Z" fill="#F9ACC0"/>
<path d="M222.571 42.2018C222.587 42.1959 222.603 42.1866 222.616 42.1744C222.629 42.1623 222.639 42.1475 222.646 42.1311C222.653 42.1148 222.656 42.0971 222.656 42.0793C222.656 42.0615 222.652 42.044 222.645 42.0278C222.317 41.1078 221.844 40.2459 221.245 39.4748C220.87 39.0196 220.401 38.6517 219.87 38.3968C219.837 38.3847 219.8 38.3856 219.768 38.3993C219.736 38.4131 219.71 38.4386 219.696 38.4708C219.684 38.5038 219.684 38.5401 219.698 38.5725C219.712 38.6048 219.737 38.6307 219.77 38.6448C220.26 38.886 220.695 39.2265 221.047 39.6448C221.621 40.3916 222.073 41.2255 222.385 42.1148C222.394 42.1436 222.412 42.1687 222.437 42.1866C222.461 42.2046 222.49 42.2144 222.521 42.2148C222.538 42.2152 222.556 42.2107 222.571 42.2018Z" fill="#1F1F39"/>
<path d="M237.491 35.8683C237.279 35.721 237.019 35.6589 236.763 35.6943C236.508 35.7133 236.264 35.8034 236.057 35.9543C235.956 36.0305 235.875 36.1301 235.821 36.2446C235.767 36.359 235.742 36.4849 235.747 36.6113C235.827 36.4076 235.974 36.2372 236.163 36.1283C236.353 36.0332 236.559 35.9742 236.77 35.9543C236.978 35.9321 237.187 35.962 237.38 36.0413C237.58 36.1415 237.748 36.2961 237.863 36.4873C237.848 36.3639 237.807 36.2451 237.743 36.1384C237.679 36.0318 237.593 35.9398 237.491 35.8683Z" fill="#1F1F39"/>
<path d="M229.312 36.5261C229.09 36.4038 228.832 36.3641 228.583 36.4141C228.456 36.431 228.334 36.4732 228.224 36.5381C228.113 36.6001 228.016 36.6845 227.939 36.7861C227.782 36.974 227.695 37.2102 227.691 37.4551C227.789 37.2571 227.925 37.0801 228.091 36.9341C228.163 36.865 228.247 36.8103 228.339 36.7731C228.389 36.7611 228.426 36.7361 228.475 36.7231L228.624 36.6861C228.825 36.6502 229.031 36.6632 229.225 36.7241C229.439 36.7815 229.632 36.8976 229.783 37.0591C229.702 36.8268 229.533 36.6355 229.312 36.5261Z" fill="#1F1F39"/>
<path d="M233.601 38.6057C233.733 38.8918 233.824 39.1946 233.874 39.5057C233.884 39.5812 233.888 39.6575 233.886 39.7337C233.88 39.8052 233.866 39.8759 233.846 39.9447C233.814 40.0758 233.734 40.1904 233.623 40.2667C233.495 40.3446 233.352 40.3947 233.204 40.4137C233.044 40.4405 232.882 40.4489 232.721 40.4387C232.879 40.5044 233.049 40.5384 233.221 40.5387C233.401 40.5434 233.58 40.505 233.742 40.4267C233.912 40.3345 234.039 40.1789 234.096 39.9937C234.124 39.9056 234.141 39.8141 234.146 39.7217C234.148 39.6305 234.144 39.5393 234.134 39.4487C234.076 39.1124 233.959 38.7893 233.787 38.4947C233.626 38.2109 233.43 37.9485 233.204 37.7137C233.34 38.0137 233.477 38.3087 233.601 38.6057Z" fill="#1F1F39"/>
<path d="M237.472 38.882C237.527 38.6309 237.48 38.3686 237.343 38.1513C237.206 37.9341 236.99 37.7791 236.74 37.7197C236.483 37.7176 236.235 37.8163 236.05 37.9947C235.865 38.1731 235.757 38.417 235.75 38.6739C235.696 38.9251 235.742 39.1876 235.88 39.4049C236.017 39.6222 236.234 39.7771 236.484 39.8363C236.741 39.8381 236.988 39.7393 237.173 39.5609C237.358 39.3825 237.465 39.1388 237.472 38.882Z" fill="#1F1F39"/>
<path d="M229.654 39.4191C229.708 39.168 229.662 38.9057 229.525 38.6884C229.388 38.4712 229.171 38.3162 228.921 38.2568C228.664 38.2547 228.417 38.3535 228.232 38.5319C228.047 38.7102 227.939 38.9541 227.932 39.211C227.878 39.4622 227.924 39.7247 228.061 39.942C228.198 40.1593 228.415 40.3142 228.665 40.3734C228.922 40.3752 229.17 40.2764 229.354 40.098C229.539 39.9196 229.647 39.6759 229.654 39.4191Z" fill="#1F1F39"/>
<path d="M234.047 49.1047C234.047 49.1047 234.217 51.5837 234.617 53.8757C233.438 53.9826 232.253 53.7413 231.209 53.1817C227.503 51.6047 227.144 49.4047 227.144 49.4047C229.403 50.16 231.862 50.0531 234.047 49.1047Z" fill="#F9ACC0"/>
<path d="M232.212 42.56C231.99 42.5285 231.773 42.4659 231.568 42.374C231.36 42.2783 231.16 42.1635 230.973 42.031C230.773 41.882 230.564 41.721 230.329 41.531C230.329 41.8361 230.421 42.1342 230.593 42.386C230.769 42.6503 231.019 42.8572 231.312 42.981C231.464 43.0411 231.622 43.0827 231.783 43.105C231.945 43.1235 232.109 43.111 232.266 43.068C232.416 43.0352 232.558 42.972 232.683 42.8825C232.808 42.7929 232.914 42.6787 232.993 42.547C232.734 42.5819 232.472 42.5863 232.212 42.56Z" fill="#DA5742"/>
<path d="M231.073 49.8614C232.148 49.7682 233.209 49.5476 234.233 49.2044C234.25 49.1985 234.265 49.1892 234.278 49.177C234.291 49.1649 234.301 49.1501 234.308 49.1337C234.315 49.1174 234.319 49.0997 234.318 49.0819C234.318 49.0641 234.314 49.0466 234.307 49.0304C234.301 49.0136 234.292 48.9983 234.279 48.9853C234.267 48.9723 234.252 48.962 234.236 48.955C234.22 48.9481 234.202 48.9446 234.184 48.9448C234.166 48.9451 234.149 48.949 234.133 48.9564C233.124 49.2751 232.085 49.4869 231.033 49.5884C229.784 49.7337 228.519 49.62 227.317 49.2544C227.284 49.2423 227.247 49.2432 227.215 49.2569C227.183 49.2707 227.157 49.2963 227.143 49.3284C227.131 49.3614 227.132 49.3978 227.145 49.4301C227.159 49.4624 227.185 49.4883 227.217 49.5024C228.11 49.7903 229.043 49.9325 229.982 49.9234C230.329 49.9234 230.689 49.8984 231.073 49.8614Z" fill="#1F1F39"/>
<path d="M228.967 42.9789C229.072 42.1092 228.007 41.2654 226.586 41.094C225.165 40.9226 223.929 41.4886 223.825 42.3583C223.72 43.228 224.786 44.0728 226.206 44.2441C227.625 44.4155 228.862 43.8496 228.967 42.9789Z" fill="#F9ACC0"/>
<path d="M237.94 39.8226C238.684 39.706 239.446 39.8505 240.096 40.2316C240.061 40.985 239.97 41.7348 239.823 42.4746C239.359 42.7465 238.844 42.9195 238.311 42.9826C236.896 43.1436 235.659 42.5736 235.56 41.7066C235.461 40.8396 236.514 39.9836 237.94 39.8226Z" fill="#F9ACC0"/>
<path d="M206.891 94.3313C208.751 94.4653 208.874 96.6493 208.874 96.6493C209.677 96.4221 210.536 96.5202 211.266 96.9223C212.332 97.6043 212.059 99.6493 212.059 99.6493C212.496 99.7568 212.897 99.9768 213.223 100.288C213.548 100.598 213.787 100.989 213.914 101.42C214.571 103.056 211.807 106.253 206.49 107.456C201.173 108.659 197.472 106.477 196.014 103.465C194.556 100.453 195.084 98.4083 194.031 95.5333C193.438 94.1519 192.583 92.898 191.514 91.8403C191.333 91.5462 191.235 91.2078 191.233 90.8621C191.231 90.5164 191.323 90.1767 191.501 89.8801C191.678 89.5834 191.934 89.3412 192.239 89.1799C192.545 89.0186 192.889 88.9443 193.234 88.9653C195.49 88.9653 197.869 90.7373 199.334 92.5223C200.21 93.5983 200.801 94.8766 201.054 96.2403C201.054 96.2403 205.032 94.1953 206.891 94.3313Z" fill="#F9D2DD"/>
<path d="M206.556 102.511L212.121 99.9082C212.137 99.9009 212.151 99.8906 212.163 99.8779C212.174 99.8652 212.183 99.8503 212.189 99.8341C212.195 99.818 212.197 99.8008 212.196 99.7836C212.195 99.7665 212.191 99.7497 212.183 99.7342C212.176 99.7187 212.166 99.7047 212.153 99.6932C212.14 99.6816 212.126 99.6727 212.109 99.6669C212.093 99.6612 212.076 99.6587 212.059 99.6596C212.042 99.6605 212.025 99.6648 212.009 99.6722L206.444 102.272C206.429 102.28 206.415 102.29 206.403 102.303C206.392 102.315 206.383 102.33 206.377 102.346C206.371 102.362 206.369 102.38 206.37 102.397C206.371 102.414 206.375 102.431 206.382 102.446C206.392 102.469 206.408 102.488 206.429 102.502C206.449 102.516 206.474 102.523 206.498 102.523C206.519 102.524 206.539 102.52 206.556 102.511Z" fill="#1F1F39"/>
<path d="M203.236 99.2256L208.8 96.6226C208.816 96.6153 208.83 96.605 208.841 96.5923C208.853 96.5796 208.862 96.5647 208.867 96.5485C208.873 96.5323 208.876 96.5152 208.875 96.498C208.874 96.4809 208.87 96.4641 208.862 96.4486C208.855 96.433 208.845 96.4191 208.832 96.4075C208.819 96.396 208.804 96.3871 208.788 96.3813C208.772 96.3755 208.755 96.373 208.738 96.3739C208.72 96.3748 208.704 96.3791 208.688 96.3866L203.123 98.9866C203.108 98.9939 203.094 99.0042 203.082 99.0169C203.071 99.0296 203.062 99.0445 203.056 99.0606C203.05 99.0768 203.048 99.094 203.049 99.1111C203.049 99.1283 203.054 99.1451 203.061 99.1606C203.068 99.185 203.084 99.2062 203.105 99.2203C203.126 99.2344 203.152 99.2405 203.177 99.2376C203.198 99.239 203.218 99.2349 203.236 99.2256Z" fill="#1F1F39"/>
<path d="M199.988 91.1836C200.555 92.7411 200.998 94.3407 201.314 95.9676L197.596 98.4336L195.737 89.6466C195.762 89.6466 195.774 89.6466 195.787 89.6586L199.988 91.1836Z" fill="#F9ACC0"/>
<path d="M253.691 78.6264L256.616 88.5664L253.691 78.6264Z" fill="#1F1F39"/>
<path d="M256.654 88.7089C256.67 88.7044 256.686 88.6967 256.699 88.686C256.713 88.6754 256.724 88.6622 256.732 88.6471C256.74 88.632 256.745 88.6155 256.747 88.5984C256.748 88.5813 256.746 88.5642 256.741 88.5479L253.828 78.6029C253.823 78.5863 253.816 78.5709 253.805 78.5574C253.794 78.544 253.781 78.5329 253.766 78.5247C253.751 78.5166 253.734 78.5116 253.717 78.5101C253.7 78.5086 253.683 78.5105 253.667 78.5159C253.65 78.5203 253.635 78.5281 253.621 78.5387C253.608 78.5493 253.597 78.5626 253.589 78.5777C253.58 78.5927 253.576 78.6093 253.574 78.6264C253.572 78.6434 253.574 78.6606 253.58 78.6769L256.492 88.6169C256.499 88.6441 256.515 88.668 256.538 88.6848C256.56 88.7015 256.588 88.71 256.616 88.7089H256.654Z" fill="#1F1F39"/>
<path d="M258.243 60.619C258.236 60.5938 258.234 60.5674 258.237 60.5413C258.239 60.5152 258.247 60.4899 258.26 60.4668C258.273 60.4438 258.29 60.4235 258.31 60.407C258.331 60.3906 258.354 60.3784 258.379 60.371C258.43 60.3603 258.482 60.3683 258.527 60.3935C258.572 60.4187 258.606 60.4594 258.623 60.508C258.723 60.793 258.834 61.078 258.933 61.351C258.941 61.3762 258.943 61.4026 258.94 61.4287C258.937 61.4548 258.929 61.4801 258.917 61.5032C258.904 61.5262 258.887 61.5465 258.867 61.563C258.846 61.5794 258.823 61.5916 258.797 61.599C258.772 61.6076 258.746 61.6109 258.72 61.6087C258.693 61.6066 258.668 61.5991 258.644 61.5866C258.621 61.5741 258.601 61.5569 258.584 61.5362C258.568 61.5154 258.556 61.4916 258.549 61.466C258.45 61.177 258.343 60.892 258.243 60.619Z" fill="white"/>
<path d="M222.609 107.988C221.59 107.986 220.571 107.932 219.558 107.827C216.093 107.345 212.73 106.304 209.599 104.746C205.696 102.97 202.289 100.262 199.679 96.8605C197.322 93.7537 195.95 90.0117 195.741 86.1175C195.648 84.1396 196.05 82.1698 196.911 80.3865C198.111 78.1415 200.191 77.4865 202.029 76.9055C203.121 76.6923 204.134 76.1815 204.955 75.4295C205.648 74.5975 205.267 73.4165 204.825 72.0495C204.275 70.3495 203.651 68.4155 204.856 66.5315C205.684 65.2235 207.531 64.5605 210.35 64.5605C212.007 64.5605 214.486 65.4875 217.52 67.2405C220.085 68.7457 222.532 70.4436 224.841 72.3195C228.6 75.3795 236.941 85.5195 237.259 95.7195C237.378 97.2208 237.185 98.7305 236.692 100.153C236.199 101.576 235.416 102.882 234.394 103.988C232.951 105.418 231.176 106.468 229.229 107.046C227.084 107.699 224.851 108.017 222.609 107.988ZM210.597 75.7525C210.013 75.7525 209.443 75.9256 208.958 76.2497C208.473 76.5739 208.094 77.0346 207.871 77.5736C207.648 78.1127 207.589 78.7058 207.703 79.2781C207.817 79.8503 208.098 80.3759 208.511 80.7885C208.923 81.2011 209.449 81.482 210.021 81.5959C210.593 81.7097 211.187 81.6513 211.726 81.428C212.265 81.2047 212.725 80.8266 213.049 80.3415C213.374 79.8564 213.547 79.286 213.547 78.7025C213.546 77.9204 213.235 77.1705 212.682 76.6175C212.129 76.0644 211.379 75.7533 210.597 75.7525Z" fill="white"/>
<path d="M222.609 107.988C221.59 107.986 220.571 107.932 219.558 107.827C216.093 107.345 212.73 106.304 209.599 104.746C205.696 102.97 202.289 100.262 199.679 96.8605C197.322 93.7537 195.95 90.0117 195.741 86.1175C195.648 84.1396 196.05 82.1698 196.911 80.3865C198.111 78.1415 200.191 77.4865 202.029 76.9055C203.121 76.6923 204.134 76.1815 204.955 75.4295C205.648 74.5975 205.267 73.4165 204.825 72.0495C204.275 70.3495 203.651 68.4155 204.856 66.5315C205.684 65.2235 207.531 64.5605 210.35 64.5605C212.007 64.5605 214.486 65.4875 217.52 67.2405C220.085 68.7457 222.532 70.4436 224.841 72.3195C228.6 75.3795 236.941 85.5195 237.259 95.7195C237.378 97.2208 237.185 98.7305 236.692 100.153C236.199 101.576 235.416 102.882 234.394 103.988C232.951 105.418 231.176 106.468 229.229 107.046C227.084 107.699 224.851 108.017 222.609 107.988ZM210.597 75.7525C210.013 75.7525 209.443 75.9256 208.958 76.2497C208.473 76.5739 208.094 77.0346 207.871 77.5736C207.648 78.1127 207.589 78.7058 207.703 79.2781C207.817 79.8503 208.098 80.3759 208.511 80.7885C208.923 81.2011 209.449 81.482 210.021 81.5959C210.593 81.7097 211.187 81.6513 211.726 81.428C212.265 81.2047 212.725 80.8266 213.049 80.3415C213.374 79.8564 213.547 79.286 213.547 78.7025C213.546 77.9204 213.235 77.1705 212.682 76.6175C212.129 76.0644 211.379 75.7533 210.597 75.7525Z" fill="white"/>
<path d="M226.712 82.581C226.191 80.92 224.432 80.301 223.502 81.651C223.165 82.1574 223.037 82.7748 223.146 83.3733C223.254 83.9718 223.591 84.505 224.084 84.861C224.553 85.1688 225.11 85.3127 225.67 85.27C226.097 84.9818 226.426 84.5697 226.613 84.089C226.799 83.6082 226.834 83.082 226.712 82.581Z" fill="white"/>
<path d="M228.15 91.1704C227.01 91.0704 226.7 91.1704 226.39 92.0004C226.08 92.8304 227.105 93.6614 228.357 93.7604C228.911 93.8035 229.462 93.651 229.915 93.3296C230.368 93.0082 230.693 92.5382 230.835 92.0014C231.15 90.9594 230.835 90.1424 229.807 90.3404C229.635 90.6182 229.388 90.8428 229.096 90.9893C228.803 91.1358 228.476 91.1985 228.15 91.1704Z" fill="white"/>
<path d="M221.107 97.7879C218.938 98.1969 215.518 97.2669 215.307 95.8169C215.096 94.3669 215.927 94.4659 217.067 94.2679C218.278 94.0433 219.394 93.4653 220.276 92.6069C220.533 92.3566 220.851 92.1779 221.199 92.0885C221.546 91.9991 221.911 92.0022 222.257 92.0974C222.603 92.1926 222.918 92.3767 223.17 92.6314C223.423 92.886 223.605 93.2023 223.697 93.5489C223.879 93.9965 223.954 94.4806 223.915 94.9622C223.875 95.4438 223.724 95.9095 223.472 96.3218C223.22 96.7341 222.875 97.0816 222.464 97.3362C222.053 97.5909 221.589 97.7456 221.107 97.7879Z" fill="white"/>
<path d="M208.589 90.6488C205.379 90.1278 205.478 88.6778 206.11 88.2688C206.742 87.8598 208.39 88.2688 208.799 87.7478C209.208 87.2268 211.787 85.9888 212.419 88.1708C213.051 90.3528 211.799 91.1698 208.589 90.6488Z" fill="white"/>
<path d="M334.787 74.9473V98.8623H275.651C274.081 98.8623 272.526 98.553 271.075 97.952C269.625 97.351 268.306 96.4702 267.196 95.3598C266.086 94.2494 265.205 92.9311 264.604 91.4803C264.003 90.0295 263.694 88.4746 263.694 86.9043C263.694 83.7331 264.954 80.6918 267.196 78.4494C269.439 76.207 272.48 74.9473 275.651 74.9473H334.787Z" fill="#F8F2FF"/>
<path d="M274.698 89.0195V85.8415H276.462C277.708 85.8415 278.268 86.4295 278.268 87.4375C278.268 88.4175 277.708 89.0195 276.462 89.0195H274.698ZM279.906 87.4375C279.906 85.8555 278.772 84.5395 276.462 84.5395H273.102V94.2695H274.698V90.3215H276.462C278.996 90.3215 279.906 88.8235 279.906 87.4375ZM280.896 90.3775C280.896 92.7575 282.506 94.3955 284.508 94.3955C285.796 94.3955 286.72 93.7795 287.21 93.1215V94.2695H288.82V86.5555H287.21V87.6755C286.734 87.0455 285.838 86.4295 284.536 86.4295C282.506 86.4295 280.896 87.9975 280.896 90.3775ZM287.21 90.4055C287.21 92.0715 286.076 93.0095 284.872 93.0095C283.682 93.0095 282.534 92.0435 282.534 90.3775C282.534 88.7115 283.682 87.8155 284.872 87.8155C286.076 87.8155 287.21 88.7535 287.21 90.4055ZM290.916 94.2695H292.512V86.5555H290.916V94.2695ZM291.728 85.5335C292.288 85.5335 292.736 85.0855 292.736 84.5115C292.736 83.9375 292.288 83.4895 291.728 83.4895C291.154 83.4895 290.706 83.9375 290.706 84.5115C290.706 85.0855 291.154 85.5335 291.728 85.5335ZM300.082 94.2695H301.664V89.7195C301.664 87.5635 300.306 86.4295 298.5 86.4295C297.576 86.4295 296.722 86.8075 296.204 87.4375V86.5555H294.608V94.2695H296.204V89.9575C296.204 88.5435 296.974 87.8155 298.15 87.8155C299.312 87.8155 300.082 88.5435 300.082 89.9575V94.2695ZM303.951 92.1275C303.951 93.6955 304.805 94.2695 306.177 94.2695H307.437V92.9395H306.457C305.785 92.9395 305.561 92.7015 305.561 92.1275V87.8575H307.437V86.5555H305.561V84.6375H303.951V86.5555H303.041V87.8575H303.951V92.1275ZM308.908 94.2695H310.504V86.5555H308.908V94.2695ZM309.72 85.5335C310.28 85.5335 310.728 85.0855 310.728 84.5115C310.728 83.9375 310.28 83.4895 309.72 83.4895C309.146 83.4895 308.698 83.9375 308.698 84.5115C308.698 85.0855 309.146 85.5335 309.72 85.5335ZM318.074 94.2695H319.656V89.7195C319.656 87.5635 318.298 86.4295 316.492 86.4295C315.568 86.4295 314.714 86.8075 314.196 87.4375V86.5555H312.6V94.2695H314.196V89.9575C314.196 88.5435 314.966 87.8155 316.142 87.8155C317.304 87.8155 318.074 88.5435 318.074 89.9575V94.2695ZM321.16 90.3775C321.16 92.7575 322.77 94.3955 324.8 94.3955C326.06 94.3955 326.984 93.7655 327.474 93.1075V94.3955C327.474 95.9355 326.55 96.6915 325.318 96.6915C324.212 96.6915 323.358 96.1455 323.12 95.3475H321.538C321.734 97.0555 323.26 98.0775 325.318 98.0775C327.726 98.0775 329.084 96.4955 329.084 94.3955V86.5555H327.474V87.6755C326.998 87.0175 326.06 86.4295 324.8 86.4295C322.77 86.4295 321.16 87.9975 321.16 90.3775ZM327.474 90.4055C327.474 92.0715 326.34 93.0095 325.136 93.0095C323.946 93.0095 322.798 92.0435 322.798 90.3775C322.798 88.7115 323.946 87.8155 325.136 87.8155C326.34 87.8155 327.474 88.7535 327.474 90.4055Z" fill="#9065BE"/>
<path d="M148 30.5391H12C5.37258 30.5391 0 35.9116 0 42.5391V95.9991C0 102.626 5.37258 107.999 12 107.999H148C154.627 107.999 160 102.626 160 95.9991V42.5391C160 35.9116 154.627 30.5391 148 30.5391Z" fill="#CEECFE"/>
<path d="M107.904 61.9355L80.3562 49.9355L69.6562 53.1815L88.0562 70.4965L107.904 61.9355Z" fill="#F9ACC0"/>
<path d="M16.2697 67.6108L15.6807 88.2918L22.2807 85.8918L20.2377 107.531L78.5547 107.771L74.5867 75.0658L90.0977 70.2578L81.6807 51.2578C81.6807 51.2578 59.7127 53.2418 46.2097 56.4278C39.794 58.0383 33.5205 60.1697 27.4517 62.8008C20.2377 65.8068 16.2697 67.6108 16.2697 67.6108Z" fill="#3D5CFF"/>
<path d="M35.6283 25.166C31.7812 28.052 31.0592 34.425 29.4953 38.032C27.9313 41.639 27.2112 42.602 25.7682 44.044C24.7922 44.952 23.5863 45.5758 22.2812 45.848C22.2812 45.848 27.4513 54.385 41.7603 53.664C56.0693 52.943 62.8022 46.931 65.3273 44.526C66.9408 42.8917 68.1726 40.9205 68.9342 38.754C68.9342 38.754 62.0802 38.393 59.1953 32.622C56.3103 26.851 52.9422 23.002 48.7342 23.002C44.5262 23.002 42.7222 24.685 42.7222 24.685C41.6453 23.9917 40.3735 23.6641 39.0956 23.7507C37.8177 23.8374 36.6018 24.3337 35.6283 25.166Z" fill="#1F1F39"/>
<path d="M16.0059 88.1832L22.2829 85.8832L21.9339 89.6502L23.2439 78.6602L16.0059 88.1832Z" fill="#224BF4"/>
<path d="M75.3203 81.0796L74.5873 75.0676L78.0503 73.9976L72.9873 65.2676L75.3203 81.0796Z" fill="#224BF4"/>
<path d="M61.4565 67.467C61.2815 67.8424 60.9848 68.1476 60.6145 68.333C60.2231 68.5412 59.8855 68.8377 59.6285 69.199C59.5087 69.3924 59.4315 69.6092 59.4021 69.8348C59.3727 70.0604 59.3917 70.2897 59.458 70.5074C59.5242 70.7251 59.6362 70.9261 59.7863 71.0971C59.9364 71.2681 60.1212 71.4051 60.3285 71.499C60.5565 71.607 60.7495 71.271 60.5205 71.162C60.3358 71.0825 60.1734 70.9589 60.0477 70.802C59.9219 70.645 59.8367 70.4596 59.7995 70.262C59.7611 70.0484 59.7783 69.8285 59.8494 69.6234C59.9205 69.4184 60.0431 69.235 60.2055 69.091C60.7945 68.538 61.7685 68.249 61.8645 67.335C61.8616 67.0861 61.8079 66.8405 61.7066 66.6131C61.6053 66.3858 61.4586 66.1815 61.2755 66.013C61.1315 65.833 60.8545 66.113 61.0105 66.302C61.2755 66.626 61.6005 67.023 61.4565 67.467Z" fill="white"/>
<path d="M28.4144 105.739C28.4203 105.886 28.3929 106.033 28.3342 106.168C28.2755 106.304 28.187 106.424 28.0754 106.521C27.6184 106.978 26.9934 107.194 26.6084 107.721C26.4644 107.921 26.8004 108.121 26.9454 107.913C27.184 107.64 27.469 107.412 27.7874 107.24C28.0904 107.058 28.3575 106.823 28.5754 106.545C28.6774 106.411 28.7496 106.257 28.7868 106.093C28.8241 105.929 28.8257 105.759 28.7914 105.595C28.6884 105.23 28.4919 104.898 28.2214 104.633C28.0654 104.433 27.7884 104.705 27.9444 104.898C28.1797 105.126 28.3431 105.418 28.4144 105.739Z" fill="white"/>
<path d="M67.9976 75.4992C67.7718 75.9035 67.4335 76.2335 67.0236 76.4492C66.6274 76.6503 66.2883 76.9482 66.0376 77.3152C65.9144 77.5441 65.8549 77.802 65.8655 78.0619C65.876 78.3217 65.9562 78.5739 66.0976 78.7922C66.4584 79.3086 66.9474 79.7222 67.5166 79.9922C67.5612 80.016 67.6133 80.0215 67.6619 80.0074C67.7104 79.9934 67.7516 79.961 67.7766 79.9171C67.8016 79.8732 67.8085 79.8212 67.7958 79.7723C67.7831 79.7234 67.7519 79.6814 67.7086 79.6552C67.2095 79.4271 66.7756 79.0774 66.4466 78.6382C66.31 78.4445 66.2406 78.2114 66.2493 77.9746C66.258 77.7377 66.3442 77.5103 66.4946 77.3272C66.8137 77.0306 67.1692 76.7759 67.5526 76.5692C67.9503 76.3104 68.2573 75.9338 68.4306 75.4922C68.6198 74.9723 68.6027 74.3997 68.3826 73.8922C68.3704 73.8696 68.3538 73.8497 68.3338 73.8336C68.3138 73.8175 68.2908 73.8056 68.2661 73.7985C68.2414 73.7914 68.2156 73.7893 68.1901 73.7924C68.1646 73.7954 68.14 73.8035 68.1176 73.8162C68.072 73.8408 68.0377 73.8822 68.0221 73.9317C68.0064 73.9811 68.0105 74.0347 68.0336 74.0812C68.1259 74.3072 68.1704 74.5499 68.1642 74.7939C68.158 75.038 68.1013 75.2781 67.9976 75.4992Z" fill="white"/>
<path d="M34.4866 94.1365C34.5347 93.7935 34.5347 93.4455 34.4866 93.1025C34.4306 92.8204 34.2862 92.5635 34.0744 92.369C33.8626 92.1744 33.5944 92.0524 33.3086 92.0205C32.9602 91.9781 32.6067 92.015 32.2746 92.1285C31.9746 92.2285 31.6856 92.3685 31.3746 92.4535C31.2305 92.5088 31.0743 92.5247 30.922 92.4994C30.7697 92.474 30.627 92.4085 30.5086 92.3095C30.2961 92.1093 30.1378 91.8585 30.0486 91.5805C29.9467 91.2795 29.9145 90.9593 29.9544 90.644C29.9942 90.3288 30.1051 90.0267 30.2786 89.7605C30.4106 89.5555 30.0856 89.3635 29.9416 89.5675C29.6231 90.063 29.4909 90.6556 29.5686 91.2395C29.5971 91.5343 29.6866 91.8199 29.8316 92.0782C29.9766 92.3364 30.1738 92.5617 30.4106 92.7395C30.9996 93.1245 31.6606 92.7635 32.2386 92.5595C32.5128 92.4172 32.8245 92.3639 33.1304 92.4069C33.4363 92.4499 33.7212 92.5871 33.9456 92.7995C34.1267 93.125 34.1862 93.5042 34.1136 93.8695C34.09 94.2962 34.023 94.7194 33.9136 95.1325C33.8656 95.3485 34.2386 95.4575 34.2986 95.2165C34.3922 94.8626 34.4551 94.5012 34.4866 94.1365Z" fill="white"/>
<path d="M69.7279 95.3627C69.1029 95.3387 68.6579 95.9157 68.2129 96.2757C67.7848 96.7093 67.2279 96.9928 66.6253 97.0838C66.0228 97.1748 65.407 97.0685 64.8699 96.7807C64.6171 96.6179 64.4153 96.3872 64.2876 96.115C64.1599 95.8428 64.1115 95.5402 64.1479 95.2417C64.1969 94.9987 63.8239 94.8937 63.7759 95.1337C63.7199 95.6806 63.8739 96.2284 64.2066 96.666C64.5393 97.1036 65.026 97.3984 65.5679 97.4907C66.1797 97.5878 66.8066 97.4997 67.3679 97.2377C67.9365 96.9684 68.4565 96.6069 68.9069 96.1677C69.1269 95.9757 69.4149 95.7107 69.7279 95.7587C69.9279 95.7827 70.2329 96.0117 70.1009 96.2397C70.0169 96.4397 70.3409 96.6397 70.4619 96.4197C70.7379 95.9277 70.2329 95.3867 69.7279 95.3627Z" fill="white"/>
<path d="M55.8039 83.1941C55.7731 83.4712 55.675 83.7367 55.5181 83.9673C55.3613 84.1978 55.1504 84.3866 54.9039 84.5171C54.383 84.8099 53.9314 85.2117 53.5799 85.6951C53.4216 85.9211 53.3417 86.1929 53.3525 86.4687C53.3634 86.7445 53.4643 87.0091 53.6399 87.2221C53.8596 87.4128 54.1204 87.55 54.402 87.6231C54.6836 87.6961 54.9783 87.7029 55.2629 87.6431C55.3709 87.6311 55.4189 87.4991 55.3949 87.4031C55.3709 87.3071 55.2629 87.2541 55.1529 87.2701C54.9248 87.3199 54.6878 87.3119 54.4635 87.2468C54.2393 87.1816 54.0349 87.0614 53.8689 86.8971C53.5079 86.4281 53.8689 85.8391 54.2179 85.4901C54.6179 85.0901 55.1319 84.8651 55.5409 84.4901C55.7505 84.316 55.917 84.0958 56.0274 83.8467C56.1377 83.5975 56.1889 83.3263 56.1769 83.0541C56.1015 82.3931 55.8047 81.7771 55.3349 81.3061C55.1669 81.1381 54.9029 81.4141 55.0709 81.5951C55.5074 82.0171 55.769 82.5879 55.8039 83.1941Z" fill="white"/>
<path d="M51.4285 98.4035C51.5472 98.6328 51.5972 98.8914 51.5725 99.1485C51.5141 99.4478 51.3997 99.7335 51.2355 99.9905C51.0612 100.258 50.9264 100.55 50.8355 100.856C50.7672 101.138 50.7714 101.431 50.8475 101.71C50.9186 101.99 51.0568 102.248 51.2503 102.462C51.4437 102.675 51.6865 102.839 51.9575 102.937C52.2687 103.041 52.6024 103.058 52.9225 102.986C53.2425 102.914 53.5368 102.756 53.7735 102.528C53.9535 102.36 53.6735 102.083 53.4965 102.251C53.2991 102.441 53.0509 102.57 52.7819 102.621C52.5129 102.672 52.2349 102.644 51.9815 102.54C51.7376 102.426 51.5318 102.244 51.3888 102.016C51.2459 101.787 51.1718 101.523 51.1755 101.253C51.1755 100.64 51.6445 100.159 51.8485 99.6185C51.9412 99.3664 51.9742 99.0962 51.9451 98.8292C51.9159 98.5622 51.8254 98.3056 51.6805 98.0795C51.5284 97.8189 51.3132 97.6007 51.0548 97.445C50.7964 97.2894 50.5029 97.2011 50.2015 97.1885C49.9615 97.1655 49.9615 97.5625 50.2015 97.5625C50.4624 97.5805 50.7138 97.668 50.9295 97.8159C51.1452 97.9638 51.3175 98.1666 51.4285 98.4035Z" fill="white"/>
<path d="M37.5646 62.4529C37.7452 62.936 37.7323 63.4702 37.5286 63.9439C37.3021 64.4564 36.9702 64.9153 36.5546 65.2909C36.2176 65.6399 35.8336 66.1449 36.0976 66.6499C36.2695 66.8969 36.526 67.0723 36.8186 67.1429C37.1618 67.2629 37.5258 67.3119 37.8886 67.2869C38.1416 67.2749 38.1416 66.8869 37.8886 66.9019C37.5792 66.9162 37.2697 66.8756 36.9746 66.7819C36.7586 66.7099 36.4346 66.6009 36.4096 66.3369C36.4268 66.1004 36.5296 65.8783 36.6986 65.7119C36.8786 65.5119 37.0836 65.3269 37.2516 65.1229C37.6281 64.7441 37.8874 64.2646 37.9983 63.7421C38.1091 63.2195 38.0669 62.6761 37.8766 62.1769C37.772 61.9291 37.6145 61.707 37.4152 61.5263C37.2159 61.3457 36.9795 61.2107 36.7226 61.1309C36.6731 61.1209 36.6217 61.13 36.5786 61.1563C36.5355 61.1826 36.504 61.2242 36.4903 61.2728C36.4766 61.3214 36.4818 61.3734 36.5049 61.4183C36.5279 61.4632 36.5671 61.4977 36.6146 61.5149C36.8334 61.5895 37.0326 61.7126 37.1971 61.875C37.3616 62.0375 37.4873 62.235 37.5646 62.4529Z" fill="white"/>
<path d="M46.3302 71.881C46.0058 71.9489 45.7045 72.0998 45.4558 72.3188C45.2071 72.5379 45.0194 72.8177 44.9112 73.131C44.6462 73.768 44.5862 74.55 44.0692 75.043C43.7942 75.2801 43.4554 75.4307 43.0952 75.476C42.7373 75.5441 42.3694 75.5401 42.0132 75.464C41.6217 75.3417 41.2639 75.1305 40.9678 74.8468C40.6716 74.5632 40.4452 74.2148 40.3062 73.829C40.2212 73.6 39.8492 73.697 39.9332 73.937C40.1941 74.6624 40.7117 75.2672 41.3882 75.637C42.0603 75.9599 42.831 76.0114 43.5402 75.781C43.9066 75.6811 44.2338 75.4718 44.4782 75.181C44.6987 74.8924 44.8657 74.5665 44.9712 74.219C45.1762 73.588 45.3082 72.819 45.9212 72.445C46.2263 72.2634 46.584 72.1909 46.9357 72.2392C47.2874 72.2876 47.6123 72.4539 47.8572 72.711C48.0132 72.891 48.2902 72.627 48.1222 72.434C47.8948 72.1975 47.6111 72.0226 47.2976 71.9259C46.9842 71.8291 46.6512 71.8137 46.3302 71.881Z" fill="white"/>
<path d="M68.4419 53.4839C67.9526 53.8235 67.5014 54.2148 67.0959 54.6509C66.8884 54.8475 66.6372 54.9918 66.3629 55.0719C65.9927 55.1538 65.6063 55.1189 65.2569 54.9719C64.888 54.8525 64.5509 54.6511 64.2709 54.3829C64.0124 54.1007 63.8192 53.7651 63.7049 53.3999C63.6906 53.3505 63.6572 53.3087 63.6121 53.2839C63.567 53.259 63.5138 53.2531 63.4644 53.2674C63.4149 53.2817 63.3732 53.3151 63.3483 53.3602C63.3235 53.4053 63.3176 53.4585 63.3319 53.5079C63.5132 54.1627 63.9397 54.7224 64.5229 55.0709C64.8276 55.2726 65.1723 55.406 65.5334 55.4621C65.8944 55.5182 66.2633 55.4956 66.6149 55.3959C67.1473 55.1265 67.6213 54.7547 68.0099 54.3019C68.1883 54.0861 68.4154 53.9158 68.6725 53.805C68.9297 53.6943 69.2095 53.6463 69.4889 53.6649C69.7925 53.705 70.0777 53.8335 70.3088 54.0344C70.54 54.2353 70.7069 54.4998 70.7889 54.7949C70.8043 54.8447 70.8385 54.8866 70.8843 54.9115C70.9301 54.9364 70.9838 54.9425 71.034 54.9284C71.0842 54.9143 71.1269 54.8812 71.153 54.8361C71.1791 54.791 71.1866 54.7375 71.1739 54.6869C71.0972 54.4119 70.9604 54.1572 70.7734 53.9414C70.5864 53.7256 70.3539 53.554 70.0926 53.4389C69.8312 53.3238 69.5476 53.2682 69.2622 53.276C68.9767 53.2837 68.6966 53.3548 68.4419 53.4839Z" fill="white"/>
<path d="M33.5125 78.5775C33.5624 79.1117 33.5091 79.6505 33.3555 80.1645C33.3027 80.4002 33.2979 80.6442 33.3414 80.8817C33.3848 81.1193 33.4757 81.3458 33.6085 81.5475C33.7447 81.723 33.9199 81.8643 34.1202 81.9603C34.3205 82.0563 34.5404 82.1043 34.7625 82.1005C35.0179 82.0867 35.2665 82.0129 35.488 81.885C35.7095 81.7571 35.8978 81.5788 36.0375 81.3645C36.1815 81.1645 35.8455 80.9645 35.7005 81.1725C35.5831 81.3494 35.4214 81.4923 35.2316 81.5873C35.0418 81.6822 34.8304 81.7257 34.6185 81.7135C34.41 81.6945 34.2126 81.6114 34.0532 81.4757C33.8939 81.34 33.7805 81.1583 33.7285 80.9555C33.5005 80.0175 34.2695 79.0075 33.7165 78.1175C33.6054 77.9159 33.4311 77.7563 33.2204 77.6634C33.0097 77.5706 32.7743 77.5495 32.5505 77.6035C32.3245 77.6645 32.4305 78.0365 32.6705 77.9645C33.0675 77.8315 33.4245 78.2165 33.5125 78.5775Z" fill="white"/>
<path d="M55.793 56.8622C55.6875 57.5474 55.3916 58.1891 54.939 58.7142C54.3811 59.3333 53.6998 59.8289 52.939 60.1692C51.9264 60.6276 50.8714 60.986 49.789 61.2392C48.1516 61.7227 46.4297 61.8498 44.739 61.6122C43.6773 61.4293 42.6922 60.9399 41.905 60.2042C41.3007 59.5923 40.8047 58.8822 40.438 58.1042C40.3931 58.0223 40.3531 57.9378 40.318 57.8512C40.21 57.6232 39.873 57.8272 39.981 58.0432C40.3578 58.8466 40.8434 59.5943 41.424 60.2652C42.185 61.076 43.1679 61.6446 44.25 61.9002C45.9047 62.2411 47.6157 62.196 49.25 61.7682C50.3961 61.5263 51.5187 61.1843 52.605 60.7462C53.4527 60.4137 54.2322 59.9287 54.905 59.3152C55.4513 58.7999 55.85 58.1482 56.06 57.4272C56.2553 56.6798 56.2707 55.8967 56.105 55.1422C56.0644 54.9312 56.0123 54.7226 55.949 54.5172C55.9347 54.4693 55.902 54.4291 55.858 54.4054C55.814 54.3817 55.7624 54.3764 55.7145 54.3907C55.6667 54.405 55.6264 54.4378 55.6027 54.4818C55.579 54.5257 55.5737 54.5773 55.588 54.6252C55.8177 55.3472 55.8877 56.1105 55.793 56.8622Z" fill="white"/>
<path d="M77.4071 52.0062L85.2234 71.9696L84.9999 72.0571L77.1836 52.0938L77.4071 52.0062Z" fill="white"/>
<path d="M83.3954 67.5942L83.4609 67.8251L73.8409 70.5551L73.7754 70.3242L83.3954 67.5942Z" fill="white"/>
<path d="M80.4191 55.7665C68.9961 49.5135 62.6191 45.7865 62.6191 45.7865C60.9433 45.4042 59.3542 44.7109 57.9341 43.7425C56.3711 42.4195 58.3551 35.5025 58.3551 35.5025C58.3551 35.5025 57.0931 31.3575 57.6941 30.9975C58.2951 30.6375 59.1341 30.2755 61.1811 32.0795C62.5571 33.4634 63.587 35.1525 64.1871 37.0095C64.1871 37.0095 89.9181 40.4965 97.3731 43.1415C104.828 45.7865 111.321 49.0335 110.72 56.6085C110.119 64.1835 102.303 63.2215 102.303 63.2215C94.6291 62.0333 87.2225 59.5102 80.4191 55.7665Z" fill="#F9D2DD"/>
<path d="M57.9341 33.9688C58.1341 34.8108 58.3551 35.5078 58.3551 35.5078C58.3551 35.5078 56.3711 42.4218 57.9341 43.7448C58.7937 44.3912 59.752 44.8947 60.7721 45.2358C61.7721 43.9608 63.1651 41.6648 62.6841 39.1157C62.1551 36.3137 59.3891 34.6538 57.9341 33.9688Z" fill="#F9ACC0"/>
<path d="M57.4679 43.2282C55.5002 43.4735 53.6628 41.6689 53.3547 39.197C53.0465 36.7252 54.3846 34.5247 56.3524 34.2794C58.3201 34.0341 60.1576 35.8397 60.4656 38.3105C60.7736 40.7814 59.4317 42.9833 57.4679 43.2282Z" fill="#F99A3D"/>
<path d="M56.6161 42.0777C55.1909 42.1748 53.9374 40.8024 53.8155 39.0129C53.6935 37.2235 54.7494 35.6948 56.1746 35.5977C57.5997 35.5006 58.8533 36.873 58.9751 38.6614C59.097 40.4498 58.0412 41.9806 56.6161 42.0777Z" fill="#FF7F2D"/>
<path d="M35.6301 42.7219C35.2931 46.1219 40.8001 47.5319 40.8001 47.5319C41.482 49.8582 42.0042 52.2284 42.3631 54.6259C42.5041 56.2662 42.5041 57.9156 42.3631 59.5559C44.3719 60.6924 46.7466 60.9948 48.9761 60.3979C53.9061 59.3159 54.1461 57.2719 54.1461 57.2719L52.2221 49.3359C53.4001 48.9115 54.4385 48.1708 55.2233 47.1951C56.0081 46.2195 56.509 45.0465 56.6711 43.8049C57.5131 39.3559 56.0711 33.9449 56.0711 33.9449L49.9391 35.1449L48.0151 33.4629V35.5069L42.2431 37.0699L40.6801 35.3869C40.6801 35.3869 41.7621 36.7099 41.1611 39.7159C40.5601 42.7219 40.1991 42.8419 40.1991 42.8419L39.9591 40.6779C39.9591 40.6779 36.1151 37.7919 35.6301 42.7219Z" fill="#F9D2DD"/>
<path d="M44.8496 43.5753C43.4841 43.8243 42.2538 43.3483 42.1013 42.5121C41.9488 41.6759 42.9319 40.7962 44.2974 40.5472C45.6629 40.2982 46.8933 40.7742 47.0458 41.6104C47.1982 42.4466 46.2141 43.3264 44.8496 43.5753Z" fill="#F9ACC0"/>
<path d="M52.2819 36.6498C52.3628 36.4956 52.4754 36.3603 52.6122 36.2526C52.749 36.1449 52.907 36.0673 53.0759 36.0248C53.2373 35.9873 53.4034 35.9735 53.5689 35.9838C53.738 35.9948 53.9025 36.044 54.0499 36.1278C54.1973 36.2018 54.3194 36.3179 54.4008 36.4614C54.4821 36.6049 54.519 36.7693 54.5069 36.9338C54.3182 36.7793 54.0877 36.6846 53.8449 36.6618C53.7452 36.6498 53.6445 36.6498 53.5449 36.6618C53.4922 36.6632 53.4399 36.6706 53.3889 36.6838C53.3289 36.6838 53.2889 36.7078 53.2449 36.7078C53.156 36.7283 53.0707 36.762 52.9919 36.8078C52.8998 36.8503 52.8145 36.9063 52.7389 36.9738C52.5829 37.1298 52.4139 37.3228 52.2219 37.5508C52.1693 37.4046 52.1474 37.2491 52.1578 37.094C52.1681 36.939 52.2103 36.7877 52.2819 36.6498Z" fill="#1F1F39"/>
<path d="M44.6351 38.2745C44.7 38.1256 44.7941 37.9912 44.9117 37.8792C45.0293 37.7673 45.1682 37.68 45.3201 37.6225C45.3691 37.6105 45.4011 37.5985 45.4531 37.5865L45.5131 37.5745H45.7131C45.7535 37.5731 45.7938 37.5771 45.8331 37.5865C45.9932 37.605 46.1483 37.6539 46.2901 37.7305C46.4346 37.8147 46.5549 37.935 46.6391 38.0795C46.6756 38.151 46.6999 38.228 46.7111 38.3075C46.7259 38.3835 46.7225 38.462 46.7011 38.5365C46.6063 38.456 46.501 38.3887 46.3881 38.3365C46.2953 38.3045 46.1989 38.2837 46.1011 38.2745H45.7411C45.7171 38.2745 45.7011 38.2835 45.6811 38.2835H45.6571L45.6331 38.2955C45.6211 38.2955 45.5971 38.3075 45.5851 38.3075C45.4131 38.3806 45.2546 38.482 45.1161 38.6075C44.9241 38.7515 44.7551 38.9325 44.5271 39.1125C44.4727 38.8288 44.5106 38.5351 44.6351 38.2745Z" fill="#1F1F39"/>
<path d="M50.6839 38.4171C50.8191 38.5262 50.9403 38.6515 51.0449 38.7901C51.1588 38.9342 51.2369 39.1031 51.2729 39.2831C51.287 39.3793 51.283 39.4774 51.2609 39.5721C51.2523 39.6184 51.2361 39.663 51.2129 39.7041C51.2031 39.7521 51.1826 39.7972 51.1529 39.8361C51.0687 40.0019 50.9394 40.1405 50.7799 40.2361C50.4856 40.4182 50.1359 40.4892 49.7939 40.4361C50.111 40.3795 50.4111 40.252 50.6719 40.0631C50.7928 39.9749 50.8847 39.8527 50.9359 39.7121C50.9515 39.6801 50.9635 39.6466 50.9719 39.6121C50.9845 39.58 50.9926 39.5464 50.9959 39.5121C51.0075 39.4459 51.0075 39.3783 50.9959 39.3121C50.9686 39.1685 50.9114 39.0322 50.8279 38.9121C50.7382 38.7836 50.6378 38.6629 50.5279 38.5511C50.3108 38.3174 50.0732 38.1035 49.8179 37.9121C50.1318 38.033 50.4242 38.2035 50.6839 38.4171Z" fill="#1F1F39"/>
<path d="M50.4308 41.8928C51.1864 41.7732 51.9054 41.4854 52.5348 41.0508C52.5348 41.0508 53.3528 43.7078 52.4348 44.6218C51.5168 45.5358 49.1688 45.6798 48.5558 44.0088C47.9428 42.3378 48.1468 41.9648 48.1468 41.9648C48.9072 42.0608 49.678 42.0365 50.4308 41.8928Z" fill="#F95368"/>
<path d="M52.7624 43.9923C52.102 43.7551 51.3845 43.7268 50.7074 43.9113C50.1075 44.0734 49.5575 44.3828 49.1074 44.8113C49.6036 45.1516 50.1987 45.3176 50.7994 45.2832C51.4 45.2488 51.9723 45.016 52.4264 44.6213C52.5895 44.4433 52.7051 44.2269 52.7624 43.9923Z" fill="#F9ACC0"/>
<path d="M41.1605 39.7278C40.5605 42.7338 40.1985 42.8538 40.1985 42.8538L39.9585 40.6898C39.8629 40.6192 39.7627 40.5551 39.6585 40.4978L37.2285 45.8478C38.3111 46.6136 39.5198 47.1833 40.7995 47.5308C40.7995 47.5308 40.9195 47.9308 41.0765 48.5528C42.0816 47.2792 42.7526 45.7747 43.0285 44.1758C43.3245 43.1612 43.3215 42.0828 43.02 41.0699C42.7185 40.0569 42.1312 39.1524 41.3285 38.4648C41.3034 38.8894 41.2472 39.3115 41.1605 39.7278Z" fill="#F9ACC0"/>
<path d="M39.5832 47.5071C37.4032 47.6548 35.486 45.5566 35.3005 42.8199C35.1151 40.0831 36.7318 37.7455 38.9118 37.5978C41.0918 37.4501 43.009 39.5483 43.1944 42.285C43.3799 45.0218 41.7632 47.3594 39.5832 47.5071Z" fill="#F99A3D"/>
<path d="M39.058 45.5632C37.6333 45.6597 36.3807 44.2872 36.2595 42.4983C36.1383 40.7094 37.1944 39.1816 38.6191 39.085C40.0439 38.9885 41.2965 40.361 41.4176 42.1489C41.5388 43.9368 40.4828 45.4666 39.058 45.5632Z" fill="#FF7F2D"/>
<path d="M35.9907 28.2912C34.8524 30.3073 34.2711 32.5901 34.3067 34.9052C34.2707 36.5219 34.4332 38.137 34.7907 39.7142L37.5447 38.5142C37.5447 38.5142 36.6907 32.8002 38.0337 29.4942C38.6532 27.8995 39.7281 26.5223 41.1247 25.5342C41.1967 25.4862 41.6417 25.1972 42.0147 24.9932C42.1347 24.9332 42.2427 24.8852 42.3277 24.8372L42.7277 24.6812C42.7277 24.6812 43.3167 24.3322 43.8097 24.0812C44.3954 23.8068 44.9964 23.566 45.6097 23.3602C43.9486 22.8584 42.1656 22.9432 40.5597 23.6002C38.5679 24.6265 36.9642 26.2731 35.9907 28.2912Z" fill="#F99A3D"/>
<path d="M46.0537 105.846C43.9977 105.413 41.7367 104.716 40.6427 102.936C39.8487 101.649 39.7527 99.9421 40.3427 97.7421C40.9797 95.3491 43.0717 93.3531 45.4887 91.0421C48.6387 88.0361 52.2097 84.6211 53.5687 79.3421C55.3487 72.4161 49.0837 67.3181 44.5267 63.5901C43.2204 62.6023 41.9979 61.5082 40.8717 60.3191C39.4887 58.6881 38.7317 55.9831 38.6347 52.3031C38.5946 50.6238 38.6791 48.9439 38.8877 47.2771C38.892 47.2452 38.9026 47.2144 38.9189 47.1866C38.9352 47.1587 38.9568 47.1344 38.9826 47.1151C39.0084 47.0957 39.0378 47.0817 39.069 47.0738C39.1003 47.0659 39.1328 47.0643 39.1647 47.0691C39.2267 47.0817 39.2817 47.1172 39.3188 47.1685C39.3558 47.2199 39.3722 47.2833 39.3647 47.3461C39.3567 47.4331 38.0937 56.3071 41.2327 60.0231C42.338 61.1885 43.5363 62.2621 44.8157 63.2331C49.4807 67.0331 55.8777 72.2511 54.0257 79.4771C52.6427 84.8881 49.0117 88.3511 45.8137 91.4051C43.4447 93.6411 41.4007 95.5891 40.7997 97.8621C40.2467 99.9301 40.3307 101.517 41.0527 102.684C41.8467 103.984 43.3737 104.784 46.1527 105.377C48.4141 105.869 50.7348 106.031 53.0427 105.858C53.0735 105.854 53.1047 105.856 53.1347 105.864C53.1647 105.873 53.1927 105.887 53.2173 105.906C53.2418 105.925 53.2624 105.948 53.2779 105.975C53.2933 106.002 53.3032 106.032 53.3072 106.063C53.3111 106.093 53.309 106.125 53.3008 106.155C53.2927 106.185 53.2787 106.213 53.2597 106.237C53.2407 106.262 53.2171 106.282 53.1901 106.298C53.1632 106.313 53.1335 106.323 53.1027 106.327C52.5197 106.392 51.9332 106.42 51.3467 106.411C49.5676 106.406 47.7938 106.217 46.0537 105.846Z" fill="#1F1F39"/>
<path d="M50.2975 68.8736C50.2587 68.8237 50.2408 68.7606 50.2475 68.6978C50.2542 68.6349 50.285 68.5771 50.3335 68.5366C50.4065 68.4776 57.4405 62.8136 59.4465 55.8756C60.617 51.5815 60.2825 47.0161 58.4985 42.9386C58.4843 42.9101 58.4758 42.8792 58.4735 42.8474C58.4712 42.8157 58.4752 42.7839 58.4852 42.7537C58.4953 42.7235 58.5111 42.6956 58.5319 42.6716C58.5528 42.6475 58.5781 42.6278 58.6065 42.6136C58.635 42.5993 58.6659 42.5908 58.6976 42.5885C58.7294 42.5862 58.7612 42.5902 58.7914 42.6002C58.8216 42.6103 58.8495 42.6262 58.8735 42.647C58.8976 42.6678 58.9173 42.6931 58.9315 42.7216C60.7654 46.9048 61.1092 51.5904 59.9055 55.9966C57.8615 63.0786 50.7065 68.8376 50.6345 68.8976C50.6193 68.9214 50.5978 68.9407 50.5725 68.9534C50.5471 68.9661 50.5188 68.9717 50.4905 68.9696C50.4533 68.9689 50.4166 68.9599 50.3832 68.9433C50.3498 68.9267 50.3206 68.9029 50.2975 68.8736Z" fill="#1F1F39"/>
<path d="M47.7254 87.8953L48.1454 87.4753C48.2336 87.3818 48.3396 87.307 48.4573 87.2552C48.5749 87.2035 48.7017 87.1758 48.8302 87.1739C48.9587 87.172 49.0863 87.1959 49.2054 87.2442C49.3245 87.2925 49.4327 87.3642 49.5237 87.455C49.6146 87.5459 49.6863 87.654 49.7347 87.7731C49.7831 87.8922 49.8071 88.0197 49.8053 88.1483C49.8035 88.2768 49.7759 88.4036 49.7242 88.5213C49.6726 88.6389 49.5978 88.7451 49.5044 88.8333L49.0834 89.2543C48.9015 89.426 48.6598 89.5199 48.4098 89.5162C48.1597 89.5126 47.9209 89.4115 47.7441 89.2346C47.5673 89.0577 47.4665 88.8188 47.463 88.5688C47.4595 88.3187 47.5536 88.0771 47.7254 87.8953Z" fill="#1F1F39"/>
<path d="M52.2951 49.6588C52.3431 49.4668 50.7801 50.0668 49.0961 50.0668C46.3191 50.0668 45.3691 49.4668 45.3691 49.4668C45.3691 49.4668 48.0141 52.8338 50.7801 53.9158C51.6524 54.2605 52.5657 54.4908 53.4971 54.6008L52.2951 49.6588Z" fill="#F9ACC0"/>
<path d="M44.9721 49.4423C44.9585 49.4368 44.9462 49.4287 44.9359 49.4184C44.9255 49.4081 44.9173 49.3959 44.9117 49.3824C44.9061 49.3689 44.9033 49.3544 44.9033 49.3398C44.9034 49.3252 44.9064 49.3107 44.9121 49.2973C44.9176 49.2837 44.9257 49.2714 44.936 49.261C44.9463 49.2507 44.9585 49.2425 44.972 49.2369C44.9855 49.2313 45 49.2284 45.0146 49.2285C45.0292 49.2286 45.0436 49.2316 45.0571 49.2373C46.3444 49.7357 47.717 49.9766 49.0971 49.9463C50.1581 49.92 51.2103 49.7456 52.2231 49.4283C52.2373 49.4233 52.2523 49.4212 52.2673 49.4221C52.2823 49.4231 52.2969 49.427 52.3103 49.4338C52.3238 49.4405 52.3357 49.4498 52.3455 49.4612C52.3552 49.4727 52.3626 49.486 52.3671 49.5003C52.3721 49.5144 52.3742 49.5295 52.3732 49.5445C52.3723 49.5595 52.3683 49.5741 52.3616 49.5875C52.3549 49.601 52.3455 49.6129 52.3341 49.6227C52.3227 49.6324 52.3094 49.6398 52.2951 49.6443C51.2603 49.9771 50.182 50.1553 49.0951 50.1733H48.7951C47.4882 50.1517 46.1948 49.9044 44.9721 49.4423Z" fill="#1F1F39"/>
<path d="M53.2443 107.532C52.8782 107.53 52.5276 107.383 52.2687 107.124C52.0098 106.865 51.8634 106.515 51.8613 106.149C51.8634 105.782 52.0098 105.432 52.2687 105.173C52.5276 104.914 52.8782 104.768 53.2443 104.766H72.2443C72.6105 104.768 72.961 104.914 73.2199 105.173C73.4788 105.432 73.6252 105.782 73.6273 106.149C73.6284 106.331 73.5933 106.511 73.5242 106.679C73.4551 106.847 73.3533 107 73.2246 107.129C73.096 107.258 72.9431 107.359 72.7748 107.429C72.6066 107.498 72.4262 107.533 72.2443 107.532H53.2443Z" fill="#EAEAFF"/>
<path d="M24.2053 72.1797L22.2812 85.8867L24.2053 72.1797Z" fill="#1F1F39"/>
<path d="M22.2716 86.0085C22.2562 86.0069 22.2412 86.0022 22.2276 85.9946C22.2141 85.987 22.2022 85.9767 22.1929 85.9643C22.1835 85.9519 22.1767 85.9377 22.1731 85.9226C22.1694 85.9075 22.1689 85.8918 22.1716 85.8765L24.0976 72.1705C24.1049 72.1427 24.1223 72.1186 24.1464 72.1029C24.1705 72.0871 24.1995 72.0809 24.2279 72.0854C24.2563 72.0899 24.282 72.1048 24.3001 72.1271C24.3181 72.1495 24.3272 72.1778 24.3256 72.2065L22.4016 85.9125C22.3953 85.94 22.3802 85.9646 22.3585 85.9827C22.3368 86.0008 22.3098 86.0112 22.2816 86.0125L22.2716 86.0085Z" fill="#1F1F39"/>
<path d="M27.6957 38.0317C28.7643 35.981 30.3885 34.2725 32.3827 33.1017C33.7057 32.7407 34.0657 33.5827 34.0657 33.5827C34.3242 33.3539 34.634 33.1908 34.9689 33.1071C35.3038 33.0234 35.6539 33.0215 35.9897 33.1017C36.2692 33.2096 36.5159 33.3882 36.7056 33.6201C36.8953 33.8521 37.0214 34.1293 37.0717 34.4247C37.3466 34.2213 37.6745 34.1017 38.0158 34.0802C38.3571 34.0588 38.6974 34.1364 38.9957 34.3037C39.8377 34.7847 39.5957 35.9867 38.9957 36.7037C38.3957 37.4207 36.5957 38.7477 36.4707 39.4697C36.3457 40.1917 39.4767 47.8867 38.0337 53.0567C36.5907 58.2267 24.9277 78.6727 19.5167 85.4057C14.1057 92.1387 7.13168 91.1777 4.96768 89.4947C3.03278 88.0153 1.69892 85.8854 1.2127 83.4987C0.726473 81.1121 1.12077 78.6301 2.32268 76.5117C5.68868 70.0117 27.6957 46.9297 27.6957 46.9297C27.6957 46.9297 26.8517 40.0757 27.6957 38.0317Z" fill="#F9D2DD"/>
<path d="M33.4769 42.6254C33.4409 42.4574 32.6349 38.3444 33.9819 36.8774C34.8928 35.9164 35.9092 35.0613 37.0119 34.3284C37.0243 34.3196 37.0383 34.3136 37.0532 34.3106C37.068 34.3077 37.0833 34.3079 37.098 34.3113C37.1128 34.3147 37.1266 34.3212 37.1387 34.3304C37.1507 34.3395 37.1607 34.3511 37.1679 34.3644C37.1767 34.3767 37.1828 34.3908 37.1857 34.4056C37.1887 34.4205 37.1884 34.4358 37.185 34.4505C37.1816 34.4652 37.1751 34.4791 37.166 34.4912C37.1568 34.5032 37.1452 34.5132 37.1319 34.5204C36.0514 35.2447 35.0517 36.0828 34.1499 37.0204C32.8759 38.4084 33.6929 42.5294 33.6929 42.5774C33.6958 42.5918 33.6959 42.6066 33.693 42.621C33.6901 42.6354 33.6845 42.6491 33.6763 42.6613C33.6681 42.6735 33.6576 42.6839 33.6453 42.692C33.6331 42.7001 33.6194 42.7057 33.6049 42.7084C33.6049 42.7204 33.5929 42.7204 33.5809 42.7204C33.5555 42.7185 33.5314 42.7081 33.5125 42.6909C33.4937 42.6737 33.4811 42.6506 33.4769 42.6254Z" fill="#1F1F39"/>
<path d="M29.9893 40.9299C29.9773 40.7979 29.7643 37.6229 30.8553 36.2769C31.8005 35.235 32.8568 34.2994 34.0053 33.4869C34.0296 33.4691 34.06 33.4616 34.0898 33.4661C34.1196 33.4706 34.1464 33.4867 34.1643 33.5109C34.1806 33.5353 34.1869 33.565 34.1818 33.5938C34.1768 33.6227 34.1609 33.6485 34.1373 33.6659C33.0091 34.4663 31.9698 35.3852 31.0373 36.4069C29.9893 37.6829 30.2183 40.8659 30.2183 40.8939C30.2208 40.9288 30.2098 40.9633 30.1874 40.9902C30.165 41.017 30.1331 41.0341 30.0983 41.0379C30.084 41.0381 30.0699 41.0354 30.0567 41.03C30.0434 41.0246 30.0314 41.0167 30.0213 41.0067C30.0112 40.9966 30.0031 40.9847 29.9976 40.9715C29.9921 40.9583 29.9893 40.9442 29.9893 40.9299Z" fill="#1F1F39"/>
<path d="M72.7842 64.0039L74.5842 75.0659L72.7842 64.0039Z" fill="#1F1F39"/>
<path d="M74.479 75.0932L72.674 64.0272C72.6697 63.9962 72.6778 63.9648 72.6965 63.9397C72.7152 63.9146 72.743 63.8979 72.774 63.8932C72.8043 63.89 72.8348 63.8986 72.859 63.9173C72.8832 63.9359 72.8993 63.9631 72.904 63.9932L74.704 75.0552C74.7077 75.0859 74.6994 75.1168 74.6807 75.1415C74.662 75.1661 74.6345 75.1825 74.604 75.1872H74.588C74.5746 75.1885 74.5611 75.187 74.5483 75.1829C74.5355 75.1788 74.5237 75.1722 74.5135 75.1634C74.5033 75.1546 74.495 75.1439 74.4891 75.1318C74.4832 75.1198 74.4797 75.1066 74.479 75.0932Z" fill="#1F1F39"/>
<path d="M49.1918 42.5764C49.195 42.6103 49.2052 42.6431 49.2218 42.6728C49.2384 42.7025 49.2611 42.7283 49.2883 42.7487C49.3156 42.769 49.3468 42.7834 49.3799 42.791C49.4131 42.7985 49.4475 42.799 49.4808 42.7924L50.6588 42.5984C51.0577 42.5203 51.4512 42.4168 51.8368 42.2884C51.8708 42.2831 51.9034 42.2711 51.9326 42.2531C51.9619 42.2351 51.9874 42.2114 52.0074 42.1835C52.0275 42.1556 52.0419 42.124 52.0497 42.0905C52.0575 42.057 52.0585 42.0223 52.0528 41.9884L51.9218 41.3984C51.4447 41.6256 50.9407 41.7913 50.4218 41.8914C49.9962 41.9695 49.5645 42.0096 49.1318 42.0114L49.1918 42.5764Z" fill="white"/>
<path d="M1.50487 78.4336C0.871433 80.4095 0.864175 82.5329 1.48409 84.5132C2.104 86.4934 3.32079 88.2336 4.96787 89.4956C7.13187 91.1786 14.1059 92.1406 19.5169 85.4076C20.0459 84.7466 20.6469 83.9406 21.2849 83.0386C18.6749 84.7706 13.3969 87.4276 7.85387 85.2876C6.32557 84.7345 4.9518 83.8237 3.8473 82.6314C2.7428 81.439 1.93963 79.9997 1.50487 78.4336V78.4336Z" fill="#F9ACC0"/>
<path d="M55.5957 37.9006C54.2417 38.1526 53.2557 39.0356 53.4117 39.8726C53.5677 40.7096 54.7957 41.1956 56.1537 40.9426C56.4216 40.8939 56.6837 40.8175 56.9357 40.7146C56.931 39.7623 56.8746 38.8109 56.7667 37.8646C56.3769 37.8167 55.9819 37.8289 55.5957 37.9006Z" fill="#F9ACC0"/>
<path d="M160 74.9473V98.8623H90.1699C88.5996 98.8623 87.0447 98.553 85.5939 97.952C84.1432 97.351 82.825 96.4702 81.7147 95.3598C80.6043 94.2494 79.7236 92.9311 79.1228 91.4803C78.5219 90.0295 78.2128 88.4746 78.2129 86.9043C78.2129 83.7331 79.4726 80.6918 81.715 78.4494C83.9574 76.207 86.9987 74.9473 90.1699 74.9473H160Z" fill="#F3FBFF"/>
<path d="M86.55 83.3481V93.0781H91.436V91.7901H88.146V83.3481H86.55ZM92.2387 89.1861C92.2387 91.5661 93.8487 93.2041 95.8507 93.2041C97.1387 93.2041 98.0627 92.5881 98.5527 91.9301V93.0781H100.163V85.3641H98.5527V86.4841C98.0767 85.8541 97.1807 85.2381 95.8787 85.2381C93.8487 85.2381 92.2387 86.8061 92.2387 89.1861ZM98.5527 89.2141C98.5527 90.8801 97.4187 91.8181 96.2147 91.8181C95.0247 91.8181 93.8767 90.8521 93.8767 89.1861C93.8767 87.5201 95.0247 86.6241 96.2147 86.6241C97.4187 86.6241 98.5527 87.5621 98.5527 89.2141ZM107.733 93.0781H109.315V88.5281C109.315 86.3721 107.957 85.2381 106.151 85.2381C105.227 85.2381 104.373 85.6161 103.855 86.2461V85.3641H102.259V93.0781H103.855V88.7661C103.855 87.3521 104.625 86.6241 105.801 86.6241C106.963 86.6241 107.733 87.3521 107.733 88.7661V93.0781ZM110.819 89.1861C110.819 91.5661 112.429 93.2041 114.459 93.2041C115.719 93.2041 116.643 92.5741 117.133 91.9161V93.2041C117.133 94.7441 116.209 95.5001 114.977 95.5001C113.871 95.5001 113.017 94.9541 112.779 94.1561H111.197C111.393 95.8641 112.919 96.8861 114.977 96.8861C117.385 96.8861 118.743 95.3041 118.743 93.2041V85.3641H117.133V86.4841C116.657 85.8261 115.719 85.2381 114.459 85.2381C112.429 85.2381 110.819 86.8061 110.819 89.1861ZM117.133 89.2141C117.133 90.8801 115.999 91.8181 114.795 91.8181C113.605 91.8181 112.457 90.8521 112.457 89.1861C112.457 87.5201 113.605 86.6241 114.795 86.6241C115.999 86.6241 117.133 87.5621 117.133 89.2141ZM127.825 85.3641H126.229V89.6621C126.229 91.0761 125.459 91.8041 124.283 91.8041C123.121 91.8041 122.351 91.0761 122.351 89.6621V85.3641H120.769V89.9001C120.769 92.0561 122.141 93.1901 123.947 93.1901C124.857 93.1901 125.725 92.8121 126.229 92.1541V93.0781H127.825V85.3641ZM133.179 86.5821C134.369 86.5821 135.307 87.3381 135.335 88.5281H131.065C131.233 87.3101 132.101 86.5821 133.179 86.5821ZM136.791 90.7821H135.069C134.775 91.3841 134.229 91.8601 133.249 91.8601C132.073 91.8601 131.163 91.0901 131.051 89.8161H136.945C136.987 89.5501 137.001 89.2981 137.001 89.0321C137.001 86.7641 135.447 85.2381 133.249 85.2381C130.967 85.2381 129.399 86.7921 129.399 89.2141C129.399 91.6361 131.037 93.2041 133.249 93.2041C135.139 93.2041 136.357 92.1261 136.791 90.7821ZM138.039 89.1861C138.039 91.5661 139.649 93.2041 141.679 93.2041C142.939 93.2041 143.863 92.5741 144.353 91.9161V93.2041C144.353 94.7441 143.429 95.5001 142.197 95.5001C141.091 95.5001 140.237 94.9541 139.999 94.1561H138.417C138.613 95.8641 140.139 96.8861 142.197 96.8861C144.605 96.8861 145.963 95.3041 145.963 93.2041V85.3641H144.353V86.4841C143.877 85.8261 142.939 85.2381 141.679 85.2381C139.649 85.2381 138.039 86.8061 138.039 89.1861ZM144.353 89.2141C144.353 90.8801 143.219 91.8181 142.015 91.8181C140.825 91.8181 139.677 90.8521 139.677 89.1861C139.677 87.5201 140.825 86.6241 142.015 86.6241C143.219 86.6241 144.353 87.5621 144.353 89.2141ZM151.308 86.5821C152.498 86.5821 153.436 87.3381 153.464 88.5281H149.194C149.362 87.3101 150.23 86.5821 151.308 86.5821ZM154.92 90.7821H153.198C152.904 91.3841 152.358 91.8601 151.378 91.8601C150.202 91.8601 149.292 91.0901 149.18 89.8161H155.074C155.116 89.5501 155.13 89.2981 155.13 89.0321C155.13 86.7641 153.576 85.2381 151.378 85.2381C149.096 85.2381 147.528 86.7921 147.528 89.2141C147.528 91.6361 149.166 93.2041 151.378 93.2041C153.268 93.2041 154.486 92.1261 154.92 90.7821Z" fill="#3D5CFF"/>
</svg>
