<svg width="36" height="43" viewBox="0 0 36 43" fill="none" xmlns="http://www.w3.org/2000/svg">
<path d="M13.6692 0.799159C10.8932 2.23516 9.7552 6.24516 8.3632 8.39016C7.63118 9.75982 6.59457 10.9432 5.3332 11.8492C4.61133 12.327 3.77306 12.5994 2.9082 12.6372C2.9082 12.6372 5.3082 18.6612 14.5532 19.7212C23.7982 20.7812 28.7532 17.6552 30.6292 16.3762C31.8366 15.5025 32.8352 14.3721 33.5532 13.0662C33.5532 13.0662 29.2012 12.1032 27.9672 8.10116C26.7332 4.09916 24.9912 1.27216 22.2942 0.825159C20.9436 0.491478 19.5189 0.640034 18.2662 1.24516C17.6506 0.684843 16.8703 0.338651 16.0418 0.258269C15.2133 0.177887 14.381 0.367626 13.6692 0.799159Z" fill="#1F1F39"/>
<path d="M26.9702 32.8457L29.5532 39.7457C31.798 38.6843 33.8868 37.3202 35.7612 35.6917C35.3062 34.3607 34.9122 33.3537 34.9122 33.3537L26.9702 32.8457Z" fill="#F9D2DD"/>
<path d="M6.68224 39.8771L9.37924 32.6621L1.43724 33.1701C1.42924 33.1791 0.956242 34.3961 0.448242 35.9191C2.33502 37.5179 4.43266 38.8497 6.68224 39.8771Z" fill="#F9D2DD"/>
<path d="M26.9702 32.8457L27.8632 35.1927L35.7432 35.6827C35.3142 34.4457 34.9122 33.3537 34.9122 33.3537L26.9702 32.8457Z" fill="#F9ACC0"/>
<path d="M9.46201 32.4082L8.56201 34.7552L0.562012 35.5342C0.991012 34.3082 1.51601 32.9162 1.51601 32.9162L9.46201 32.4082Z" fill="#F9ACC0"/>
<path d="M9.13403 22.0404C5.66703 23.6074 1.85703 28.4714 0.457031 34.1844H6.65703L5.63203 39.3714C9.44788 41.32 13.6724 42.3332 17.957 42.3274C22.262 42.3331 26.5063 41.3126 30.338 39.3504L29.257 34.8584L35.526 34.2984C35.526 34.3074 34.081 26.2514 27.479 22.4424C22.189 19.3874 14.02 19.8424 9.13403 22.0404Z" fill="#3D5CFF"/>
<path d="M8.34616 28.3184L4.66016 34.1934L6.75316 34.1844L8.34616 28.3184Z" fill="#224BF4"/>
<path d="M29.2642 34.86L31.1292 34.702L26.9702 27.584L29.2642 34.86Z" fill="#224BF4"/>
<path d="M6.73535 34.2822C6.71353 34.2758 6.69492 34.2615 6.68324 34.242C6.67155 34.2226 6.66766 34.1994 6.67235 34.1772L8.42535 27.6802C8.43167 27.6584 8.44601 27.6397 8.46548 27.6281C8.48495 27.6164 8.50812 27.6125 8.53035 27.6172C8.55179 27.6239 8.56993 27.6384 8.58122 27.6578C8.59251 27.6773 8.59612 27.7002 8.59135 27.7222L6.84035 34.2172C6.83543 34.2344 6.82511 34.2497 6.81089 34.2607C6.79667 34.2717 6.77931 34.2778 6.76135 34.2782L6.73535 34.2822Z" fill="#1F1F39"/>
<path d="M29.0984 34.8611L26.8564 27.5851C26.8526 27.5747 26.851 27.5636 26.8517 27.5525C26.8524 27.5415 26.8553 27.5307 26.8602 27.5208C26.8652 27.5109 26.8721 27.5021 26.8805 27.4949C26.889 27.4877 26.8988 27.4824 26.9094 27.4791C26.9197 27.4755 26.9307 27.4741 26.9417 27.4748C26.9526 27.4755 26.9633 27.4785 26.9731 27.4834C26.9829 27.4883 26.9916 27.4952 26.9986 27.5036C27.0057 27.5119 27.0111 27.5216 27.0144 27.5321L29.2514 34.8081C29.2549 34.8185 29.2564 34.8294 29.2557 34.8404C29.2549 34.8513 29.252 34.862 29.2471 34.8718C29.2421 34.8816 29.2353 34.8903 29.2269 34.8974C29.2185 34.9045 29.2088 34.9098 29.1984 34.9131C29.1894 34.9131 29.1814 34.9221 29.1724 34.9221C29.1553 34.9207 29.139 34.9141 29.1258 34.9032C29.1126 34.8923 29.103 34.8776 29.0984 34.8611Z" fill="#1F1F39"/>
<path d="M24.6853 9.23991C24.4425 9.33594 24.213 9.46263 24.0023 9.61691C24.0002 9.13422 23.9738 8.65195 23.9233 8.17191L22.1893 8.15391L22.0843 7.11191L21.8743 8.15391L19.2213 8.12791L19.1073 7.11191L18.9233 8.11891L14.5483 8.07491L14.3703 6.25391L14.1253 8.07491L12.7943 8.06591C12.7943 8.06591 12.7773 8.79291 12.7773 9.60691C12.5646 9.45623 12.3354 9.33009 12.0943 9.23091C11.8205 9.11829 11.5214 9.08155 11.2285 9.12456C10.9356 9.16757 10.6597 9.28873 10.4299 9.47531C10.2 9.66188 10.0247 9.90696 9.92233 10.1848C9.82 10.4626 9.79443 10.7628 9.84832 11.0539C9.81917 11.4077 9.87966 11.7631 10.0242 12.0873C10.1687 12.4116 10.3927 12.6941 10.6753 12.9089C11.4632 13.2806 12.3442 13.4088 13.2053 13.2769C13.2974 13.797 13.4845 14.2956 13.7573 14.7479C14.2434 15.5497 14.8657 16.2603 15.5963 16.8479V18.9239L15.4033 21.7539C15.5822 21.8418 15.7666 21.918 15.9553 21.9819C16.2069 22.0831 16.4678 22.1595 16.7343 22.2099C17.2775 22.3324 17.8325 22.3941 18.3893 22.3939C18.9465 22.4028 19.5027 22.341 20.0443 22.2099C20.3118 22.1637 20.5731 22.0872 20.8233 21.9819C21.0121 21.918 21.1965 21.8418 21.3753 21.7539L21.1823 18.9259V16.8539C21.9129 16.2663 22.5353 15.5557 23.0213 14.7539C23.2702 14.285 23.4529 13.7839 23.5643 13.2649C24.4235 13.3541 25.2916 13.234 26.0943 12.9149C26.3789 12.7013 26.6045 12.419 26.75 12.0944C26.8955 11.7697 26.9562 11.4134 26.9263 11.0589C26.9792 10.7686 26.953 10.4695 26.8507 10.1928C26.7483 9.91606 26.5734 9.67196 26.3443 9.48602C26.1152 9.30008 25.8404 9.17913 25.5485 9.13583C25.2566 9.09253 24.9585 9.12848 24.6853 9.23991Z" fill="#F9D2DD"/>
<path d="M12.1021 9.2404C11.8285 9.12818 11.5298 9.09169 11.2373 9.13474C10.9447 9.17779 10.6692 9.2988 10.4395 9.48507C10.2099 9.67135 10.0346 9.916 9.93216 10.1934C9.82968 10.4707 9.80376 10.7706 9.85712 11.0614C9.82814 11.415 9.88871 11.7702 10.0332 12.0943C10.1778 12.4183 10.4016 12.7007 10.6841 12.9154C11.4675 13.2823 12.3406 13.4132 13.1971 13.2924C13.1971 13.2924 13.0221 12.3154 12.8911 11.3424C12.8162 10.7698 12.7808 10.1928 12.7851 9.6154C12.5723 9.46507 12.3432 9.33927 12.1021 9.2404Z" fill="#F9ACC0"/>
<path d="M24.0103 9.61401C24.0115 10.1613 23.9852 10.7083 23.9313 11.253C23.8183 12.251 23.5903 13.267 23.5903 13.267C24.4472 13.3543 25.3124 13.2332 26.1123 12.914C26.3929 12.6974 26.6151 12.4143 26.7588 12.0902C26.9025 11.7662 26.9632 11.4114 26.9353 11.058C26.9876 10.7675 26.9609 10.4682 26.858 10.1915C26.7551 9.91482 26.5798 9.67081 26.3505 9.48496C26.1211 9.29912 25.846 9.17826 25.554 9.13499C25.262 9.09173 24.9637 9.12765 24.6903 9.23901C24.4487 9.33463 24.2202 9.46065 24.0103 9.61401Z" fill="#F9ACC0"/>
<path d="M12.6981 12.5051C12.6306 12.0216 12.4406 11.5634 12.1461 11.1741C11.7537 10.6383 11.1972 10.245 10.5611 10.0541C10.5338 10.046 10.5104 10.0279 10.4957 10.0035C10.4809 9.97914 10.4757 9.95012 10.4811 9.92212C10.4893 9.89458 10.5074 9.8711 10.5321 9.8563C10.5567 9.84149 10.5859 9.83643 10.6141 9.84212C11.3027 10.0475 11.9033 10.4764 12.3211 11.0611C12.6442 11.4806 12.8471 11.9801 12.9081 12.5061C12.9081 12.534 12.897 12.5607 12.8773 12.5804C12.8576 12.6001 12.8309 12.6111 12.8031 12.6111C12.7752 12.6111 12.7485 12.6001 12.7288 12.5804C12.7092 12.5607 12.6981 12.534 12.6981 12.5061V12.5051Z" fill="#1F1F39"/>
<path d="M24.1245 12.3822C24.0979 12.3692 24.0775 12.3463 24.0676 12.3185C24.0577 12.2906 24.0591 12.26 24.0715 12.2332C24.3607 11.663 24.7275 11.1357 25.1615 10.6662C25.4562 10.3059 25.8507 10.0405 26.2955 9.90317C26.3094 9.89981 26.3239 9.89949 26.338 9.90223C26.3521 9.90498 26.3654 9.91071 26.3771 9.91906C26.3888 9.92741 26.3985 9.93817 26.4056 9.95061C26.4128 9.96305 26.4172 9.97689 26.4185 9.99117C26.4218 10.0051 26.4222 10.0196 26.4194 10.0337C26.4167 10.0478 26.4109 10.0611 26.4026 10.0728C26.3942 10.0845 26.3835 10.0942 26.371 10.1013C26.3586 10.1085 26.3448 10.1129 26.3305 10.1142C25.9334 10.2487 25.5816 10.491 25.3145 10.8142C24.8951 11.2651 24.5406 11.7723 24.2615 12.3212C24.2534 12.3413 24.2396 12.3586 24.2219 12.371C24.2041 12.3834 24.1831 12.3904 24.1615 12.3912C24.1485 12.3919 24.1357 12.3887 24.1245 12.3822Z" fill="#1F1F39"/>
<path d="M22.0492 13.4151C21.2802 13.4151 20.6572 13.0231 20.6572 12.5401C20.6572 12.0571 21.2802 11.6641 22.0492 11.6641C22.8182 11.6641 23.4412 12.0561 23.4412 12.5401C23.4412 13.0241 22.8182 13.4151 22.0492 13.4151Z" fill="#F9ACC0"/>
<path d="M14.6855 13.4151C13.9165 13.4151 13.2935 13.0231 13.2935 12.5401C13.2935 12.0571 13.9165 11.6641 14.6855 11.6641C15.4545 11.6641 16.0775 12.0561 16.0775 12.5401C16.0775 13.0241 15.4545 13.4151 14.6855 13.4151Z" fill="#F9ACC0"/>
<path d="M16.6553 17.2102C16.2903 17.1587 15.9341 17.0577 15.5963 16.9102V18.9332L15.5083 20.1932C15.7787 20.1725 16.0445 20.1108 16.2963 20.0102C17.846 19.2786 19.2681 18.3028 20.5083 17.1202C19.2292 17.264 17.9398 17.2941 16.6553 17.2102Z" fill="#F9ACC0"/>
<path d="M14.9754 8.93308C15.1251 8.82679 15.3094 8.78107 15.4914 8.80508C15.672 8.81838 15.8453 8.88213 15.9914 8.98908C16.0638 9.04318 16.1219 9.11424 16.1604 9.19601C16.1989 9.27779 16.2168 9.36778 16.2124 9.45808C16.1548 9.31293 16.0488 9.19212 15.9124 9.11608C15.7782 9.04918 15.6327 9.00781 15.4834 8.99408C15.3376 8.97855 15.1901 8.99951 15.0544 9.05508C14.9148 9.12831 14.7968 9.23693 14.7124 9.37008C14.7233 9.28291 14.7523 9.19899 14.7976 9.12372C14.8429 9.04846 14.9035 8.98351 14.9754 8.93308Z" fill="#1F1F39"/>
<path d="M20.8413 9.05499C20.9985 8.96839 21.1814 8.9404 21.3573 8.97599C21.4458 8.98746 21.5311 9.01635 21.6083 9.06099C21.6864 9.10486 21.7545 9.16445 21.8083 9.23599C21.9217 9.36896 21.9854 9.53724 21.9883 9.71199C21.9197 9.57233 21.8246 9.44734 21.7083 9.34399C21.6575 9.295 21.5978 9.25628 21.5323 9.22999C21.4973 9.22099 21.4713 9.20399 21.4363 9.19499L21.3313 9.16899C21.1883 9.14264 21.0411 9.15157 20.9023 9.19499C20.7516 9.23543 20.6151 9.31717 20.5083 9.43099C20.5661 9.26706 20.6855 9.13215 20.8413 9.05499Z" fill="#1F1F39"/>
<path d="M18.4244 11.0519C18.3311 11.255 18.2661 11.47 18.2314 11.6909C18.224 11.7432 18.221 11.796 18.2224 11.8489C18.226 11.8993 18.2347 11.9492 18.2484 11.9979C18.2723 12.0894 18.3288 12.1691 18.4074 12.2219C18.4987 12.2779 18.601 12.3137 18.7074 12.3269C18.82 12.3459 18.9344 12.352 19.0484 12.3449C18.9372 12.3933 18.8176 12.4195 18.6964 12.4219C18.5692 12.4252 18.443 12.3981 18.3284 12.3429C18.2066 12.2785 18.1153 12.1684 18.0744 12.0369C18.0539 11.9731 18.0421 11.9068 18.0394 11.8399C18.038 11.7754 18.041 11.7109 18.0484 11.6469C18.0891 11.4097 18.1721 11.1817 18.2934 10.9739C18.4067 10.7733 18.5447 10.5879 18.7044 10.4219C18.6084 10.6319 18.5124 10.8419 18.4244 11.0519Z" fill="#1F1F39"/>
<path d="M16.2156 11.0717C16.2104 11.2532 16.1343 11.4253 16.0037 11.5513C15.873 11.6773 15.6982 11.7471 15.5167 11.7458C15.3401 11.7039 15.187 11.5944 15.0901 11.4409C14.9932 11.2874 14.9603 11.1021 14.9985 10.9247C15.0037 10.7432 15.0798 10.5711 15.2105 10.4451C15.3411 10.3191 15.5159 10.2493 15.6974 10.2506C15.874 10.2926 16.0272 10.402 16.124 10.5555C16.2209 10.709 16.2538 10.8943 16.2156 11.0717Z" fill="#1F1F39"/>
<path d="M21.827 11.187C21.8217 11.3684 21.7457 11.5406 21.615 11.6666C21.4844 11.7926 21.3096 11.8624 21.1281 11.861C20.9515 11.8191 20.7983 11.7097 20.7014 11.5562C20.6046 11.4027 20.5717 11.2173 20.6098 11.0399C20.615 10.8585 20.6911 10.6863 20.8218 10.5603C20.9524 10.4343 21.1272 10.3645 21.3087 10.3659C21.4853 10.4078 21.6385 10.5172 21.7354 10.6707C21.8322 10.8242 21.8651 11.0095 21.827 11.187Z" fill="#1F1F39"/>
<path d="M18.2051 13.1798H19.0111C19.1771 13.1798 19.3701 13.1798 19.6331 13.1888C19.626 13.3134 19.5867 13.4339 19.5191 13.5388C19.4574 13.6426 19.3775 13.7345 19.2831 13.8098C19.087 13.9677 18.8429 14.0541 18.5911 14.0548C18.4594 14.0537 18.3288 14.03 18.2051 13.9848C18.0821 13.9405 17.9689 13.8726 17.8721 13.7848C17.7772 13.6966 17.7028 13.5888 17.6541 13.4688C17.61 13.3481 17.601 13.2174 17.6281 13.0918C17.8172 13.1393 18.0104 13.1687 18.2051 13.1798Z" fill="#DA5742"/>
<path d="M15.184 16.8218C15.1657 16.8036 15.1547 16.7793 15.1531 16.7535C15.1514 16.7277 15.1592 16.7022 15.175 16.6818C15.1925 16.6622 15.217 16.6503 15.2432 16.6486C15.2694 16.647 15.2952 16.6556 15.315 16.6728C16.2888 17.164 17.3836 17.3636 18.468 17.2478C18.4924 17.2466 18.5163 17.2552 18.5344 17.2716C18.5525 17.288 18.5633 17.3109 18.5645 17.3353C18.5657 17.3597 18.5572 17.3836 18.5408 17.4017C18.5244 17.4198 18.5014 17.4306 18.477 17.4318C18.3469 17.4535 18.2149 17.4622 18.083 17.4578C17.0756 17.5289 16.0691 17.3081 15.184 16.8218Z" fill="#1F1F39"/>
<path opacity="0.55" d="M25.3063 25.8576C24.8045 25.6128 24.383 25.2298 24.0914 24.7536C23.7998 24.2774 23.6502 23.7279 23.6603 23.1696C23.586 22.4352 23.6007 21.6945 23.7043 20.9636C23.7126 20.9178 23.738 20.8769 23.7753 20.849C23.8126 20.8212 23.859 20.8085 23.9053 20.8136C23.9507 20.8221 23.9913 20.8474 24.0189 20.8845C24.0465 20.9215 24.0591 20.9676 24.0543 21.0136C23.9566 21.7165 23.9435 22.4286 24.0153 23.1346C24.0045 23.6292 24.1335 24.1169 24.3875 24.5415C24.6416 24.9661 25.0103 25.3103 25.4513 25.5346C26.6153 26.0416 28.4943 25.5866 30.0083 24.4216C30.0267 24.4078 30.0476 24.3978 30.0699 24.3921C30.0921 24.3864 30.1153 24.3851 30.1381 24.3883C30.1608 24.3916 30.1827 24.3993 30.2025 24.411C30.2222 24.4227 30.2395 24.4382 30.2533 24.4566C30.2671 24.475 30.2771 24.4959 30.2828 24.5182C30.2885 24.5404 30.2898 24.5636 30.2865 24.5863C30.2833 24.6091 30.2756 24.631 30.2639 24.6507C30.2522 24.6705 30.2367 24.6878 30.2183 24.7016C29.1853 25.5508 27.9035 26.0399 26.5673 26.0946C26.1352 26.1022 25.7061 26.0216 25.3063 25.8576Z" fill="#EAEAFF"/>
<path opacity="0.55" d="M34.1241 31.1206L33.9141 31.0206C30.4461 29.4136 27.1721 27.8896 26.5611 24.1426C26.4366 23.4362 26.4298 22.7141 26.5411 22.0056C26.5445 21.9827 26.5524 21.9607 26.5645 21.941C26.5766 21.9212 26.5926 21.9042 26.6115 21.8908C26.6304 21.8774 26.6518 21.868 26.6744 21.8632C26.697 21.8583 26.7204 21.8581 26.7431 21.8626C26.7655 21.8663 26.787 21.8745 26.8062 21.8866C26.8254 21.8987 26.8421 21.9145 26.8551 21.9332C26.8681 21.9518 26.8773 21.9728 26.8821 21.995C26.8869 22.0173 26.8873 22.0402 26.8831 22.0626C26.7779 22.7349 26.7867 23.4201 26.9091 24.0896C27.4961 27.6536 30.6831 29.1416 34.0711 30.7096L34.2811 30.8096C34.3225 30.8309 34.3545 30.8669 34.3708 30.9105C34.3871 30.9542 34.3865 31.0023 34.3691 31.0456C34.3257 31.1 34.2631 31.1358 34.1941 31.1456C34.1692 31.1427 34.1452 31.1341 34.1241 31.1206Z" fill="#EAEAFF"/>
<path opacity="0.55" d="M29.5002 39.7275L29.1692 39.6275C29.3464 38.9759 29.3747 38.2927 29.2519 37.6287C29.1292 36.9646 28.8586 36.3367 28.4602 35.7915C27.1885 34.1791 25.4269 33.024 23.4412 32.5005C22.3153 32.1259 21.1377 31.9299 19.9512 31.9195C19.1555 31.9149 18.3633 32.0233 17.5982 32.2415C16.9463 32.427 16.3324 32.7266 15.7852 33.1265C16.4162 33.1885 17.0852 33.2345 17.6752 33.2745C21.0752 33.5205 24.2942 33.7515 25.0582 36.0425C25.2271 36.4683 25.2601 36.9359 25.1527 37.3812C25.0452 37.8265 24.8026 38.2276 24.4582 38.5295C23.5625 39.2204 22.4536 39.5766 21.3232 39.5365H21.1752C19.6822 39.5073 18.2119 39.1667 16.8582 38.5365C15.8891 38.1646 15.064 37.493 14.5032 36.6195C14.3058 36.29 14.1874 35.9194 14.157 35.5365C14.1267 35.1537 14.1852 34.769 14.3282 34.4125C14.4776 34.0333 14.6975 33.6859 14.9762 33.3885C13.3352 33.1885 11.3042 32.7935 10.1602 31.5885C9.80131 31.2005 9.53833 30.7338 9.39228 30.2259C9.24624 29.718 9.2212 29.1829 9.31917 28.6635C8.55204 28.644 7.78638 28.5856 7.02517 28.4885C5.76561 28.363 4.54723 27.9707 3.45117 27.3375L3.62717 27.0315C4.6788 27.6406 5.8494 28.0158 7.05917 28.1315C7.82909 28.2286 8.6034 28.287 9.37917 28.3065C9.69318 27.0647 10.3273 25.9269 11.2182 25.0065C12.0226 24.1052 13.0531 23.4352 14.2032 23.0655C14.5616 22.9589 14.9332 22.9034 15.3072 22.9005C16.0391 22.894 16.749 23.151 17.3072 23.6245C17.584 23.8397 17.7783 24.1438 17.8572 24.4855C17.936 24.8272 17.8947 25.1857 17.7402 25.5005C17.368 26.1176 16.8766 26.6543 16.2948 27.0795C15.7129 27.5046 15.0522 27.8095 14.3512 27.9765C12.8487 28.455 11.2789 28.6887 9.70217 28.6685H9.67617C9.57751 29.1407 9.59195 29.6296 9.7183 30.0952C9.84465 30.5608 10.0793 30.9899 10.4032 31.3475C11.5212 32.5225 13.6032 32.8905 15.2882 33.0805C16.6185 32.0456 18.272 31.5143 19.9562 31.5805C21.1797 31.5897 22.3943 31.7897 23.5562 32.1735C25.6115 32.727 27.4335 33.9288 28.7512 35.6005C29.173 36.1898 29.4587 36.8655 29.5875 37.5787C29.7164 38.2919 29.6852 39.0248 29.4962 39.7245L29.5002 39.7275ZM15.4002 33.4405C15.0673 33.7434 14.8069 34.1173 14.6382 34.5345C14.1042 35.9265 14.9852 37.3045 16.9942 38.2205C18.3281 38.8327 19.7738 39.1636 21.2412 39.1925C22.3094 39.2606 23.3654 38.9335 24.2082 38.2735C24.5038 38.0175 24.7117 37.6754 24.8028 37.2951C24.8939 36.9149 24.8636 36.5156 24.7162 36.1535C24.0232 34.0815 20.9232 33.8595 17.6412 33.6235C16.8722 33.5785 16.1182 33.5165 15.4002 33.4395V33.4405ZM15.2362 23.2655C14.5012 23.3135 13.7844 23.5153 13.1324 23.858C12.4804 24.2006 11.9076 24.6764 11.4512 25.2545C10.6268 26.1134 10.0342 27.1677 9.72917 28.3185C11.2529 28.3394 12.7697 28.1117 14.2202 27.6445C15.5362 27.3241 16.6761 26.5048 17.3992 25.3595C17.5248 25.1161 17.5604 24.8362 17.4994 24.5691C17.4385 24.3021 17.285 24.0652 17.0662 23.9005C16.5507 23.4787 15.9021 23.2537 15.2362 23.2655Z" fill="#EAEAFF"/>
</svg>
